<svg id="Layer_1" data-name="Layer 1" xmlns="http://www.w3.org/2000/svg" viewBox="0 0 280 280"><defs><style>.cls-1{fill:#565656;}</style></defs><title>account</title><path class="cls-1" d="M255,290H45a35,35,0,0,1-35-35V45A35,35,0,0,1,45,10H255a35,35,0,0,1,35,35V255A35,35,0,0,1,255,290ZM45,40a5,5,0,0,0-5,5V255a5,5,0,0,0,5,5H255a5,5,0,0,0,5-5V45a5,5,0,0,0-5-5Z" transform="translate(-10 -10)"/><path class="cls-1" d="M70.57,237.93a15,15,0,0,1-14.15-20L82.14,145a15,15,0,0,1,21.39-8.14L170.73,174l50.36-81.69A15,15,0,1,1,246.63,108l-57.86,93.86a15,15,0,0,1-20,5.26l-64.21-35.44L84.72,227.92A15,15,0,0,1,70.57,237.93Z" transform="translate(-10 -10)"/></svg>