<?xml version="1.0" encoding="utf-8"?>
<!-- Generator: Adobe Illustrator 23.0.0, SVG Export Plug-In . SVG Version: 6.00 Build 0)  -->
<svg version="1.1" id="Layer_1" xmlns="http://www.w3.org/2000/svg" xmlns:xlink="http://www.w3.org/1999/xlink" x="0px" y="0px"
	 viewBox="0 0 300 300" style="enable-background:new 0 0 300 300;" xml:space="preserve">
<style type="text/css">
	.st0{fill:#565656;}
</style>
<path class="st0" d="M99.3,67.42c5.5,6.2,14.98,6.76,21.18,1.26l13.88-12.32v28.49c0,8.28,6.72,15,15,15s15-6.72,15-15V56.37
	l13.88,12.32c6.2,5.5,15.68,4.93,21.18-1.26c5.5-6.2,4.93-15.68-1.26-21.18l-38.83-34.46c-2.84-2.52-6.4-3.78-9.96-3.78
	c-3.56,0-7.12,1.26-9.96,3.78l-38.83,34.46C94.36,51.74,93.8,61.22,99.3,67.42z"/>
<path class="st0" d="M265,106.56h-3.72V67.52c0-13.79-11.21-25-25-25h-20.28v30h15.28v34.04H55c-8.27,0-15-6.73-15-15v-4.04
	c0-8.27,6.73-15,15-15h27.71v-30H55c-24.57,0-44.6,19.8-44.98,44.29H10v0.71v4.04v15v44.33V255c0,19.3,15.7,35,35,35h220
	c13.79,0,25-11.21,25-25V131.56C290,117.77,278.79,106.56,265,106.56z M260,260H45c-2.76,0-5-2.24-5-5V150.89V150v-13.44v-2.58
	c4.69,1.67,9.74,2.58,15,2.58h176.29H260V260z"/>
</svg>
