<svg id="Layer_1" data-name="Layer 1" xmlns="http://www.w3.org/2000/svg" viewBox="0 0 281.88 275.98"><defs><style>.cls-1{fill:#565656;}</style></defs><title>bank</title><path class="cls-1" d="M69.77,231.09V146.28a15,15,0,1,0-30,0v84.81a15,15,0,1,0,30,0Z" transform="translate(-8.12 -12.45)"/><path class="cls-1" d="M163.12,231.09V146.28a15,15,0,1,0-30,0v84.81a15,15,0,1,0,30,0Z" transform="translate(-8.12 -12.45)"/><path class="cls-1" d="M256.47,231.09V146.28a15,15,0,0,0-30,0v84.81a15,15,0,0,0,30,0Z" transform="translate(-8.12 -12.45)"/><path class="cls-1" d="M273.12,258.43h-250a15,15,0,0,0,0,30h250a15,15,0,0,0,0-30Z" transform="translate(-8.12 -12.45)"/><path class="cls-1" d="M282.72,89.58l-125-75a15,15,0,0,0-15.44,0l-125,75A15,15,0,0,0,25,117.45H275a15,15,0,0,0,7.72-27.87ZM79.15,87.45,150,44.94l70.84,42.51Z" transform="translate(-8.12 -12.45)"/></svg>