<svg xmlns="http://www.w3.org/2000/svg" xmlns:xlink="http://www.w3.org/1999/xlink" viewBox="0 0 493.86 481.09"><defs><style>.cls-1{mask:url(#mask);}.cls-10,.cls-102,.cls-103,.cls-12,.cls-14,.cls-16,.cls-18,.cls-2,.cls-26,.cls-30,.cls-4,.cls-40,.cls-45,.cls-59,.cls-6,.cls-77,.cls-78,.cls-8,.cls-89,.cls-98{mix-blend-mode:multiply;}.cls-2{fill:url(#linear-gradient);}.cls-3{mask:url(#mask-2);}.cls-4{fill:url(#linear-gradient-2);}.cls-5{mask:url(#mask-3);}.cls-6{fill:url(#linear-gradient-3);}.cls-7{mask:url(#mask-4);}.cls-8{fill:url(#linear-gradient-4);}.cls-9{mask:url(#mask-5);}.cls-10{fill:url(#linear-gradient-5);}.cls-11{mask:url(#mask-6);}.cls-12{fill:url(#linear-gradient-6);}.cls-13{mask:url(#mask-7);}.cls-14{fill:url(#linear-gradient-7);}.cls-15{mask:url(#mask-8);}.cls-16{fill:url(#linear-gradient-8);}.cls-17{mask:url(#mask-9);}.cls-18{fill:url(#linear-gradient-9);}.cls-19{fill:none;}.cls-20{isolation:isolate;}.cls-21{fill:#ef572e;}.cls-22{clip-path:url(#clip-path);}.cls-23{fill:#99402b;}.cls-24{fill:#667f7d;}.cls-25{fill:#efb237;}.cls-103,.cls-26,.cls-30,.cls-59{fill:#614e68;}.cls-26,.cls-51,.cls-85{opacity:0.6;}.cls-27{fill:#605147;}.cls-28{fill:#3f362c;}.cls-29{fill:#7b9b98;}.cls-102,.cls-30,.cls-99{opacity:0.3;}.cls-31{fill:#d59c24;}.cls-32,.cls-34{fill:#fff7db;}.cls-32{opacity:0.7;}.cls-101,.cls-124,.cls-32,.cls-34,.cls-42,.cls-51,.cls-58,.cls-66,.cls-71,.cls-75,.cls-83,.cls-85,.cls-90,.cls-93,.cls-97,.cls-99{mix-blend-mode:overlay;}.cls-33{fill:#415957;}.cls-103,.cls-115,.cls-34,.cls-58,.cls-89{opacity:0.4;}.cls-35{fill:#c49c37;}.cls-36{fill:#634228;}.cls-37{fill:url(#linear-gradient-10);}.cls-38{fill:#ffc61b;}.cls-39{fill:#c65c2e;}.cls-40,.cls-45,.cls-59,.cls-78,.cls-79,.cls-90{opacity:0.5;}.cls-41{mask:url(#mask-10);}.cls-42{fill:url(#linear-gradient-11);}.cls-43{fill:#9b7623;}.cls-44{fill:#42392b;}.cls-45{fill:#3d3028;}.cls-46{fill:#604f35;}.cls-47{fill:url(#linear-gradient-12);}.cls-48{fill:#f9d12b;}.cls-49{fill:#f4c78c;}.cls-50{fill:#ea7a2f;}.cls-51,.cls-58{fill:#fffac6;}.cls-52{fill:#a06b47;}.cls-53{fill:url(#linear-gradient-13);}.cls-54{fill:url(#linear-gradient-14);}.cls-55{fill:url(#linear-gradient-15);}.cls-56{fill:#89cec8;}.cls-57{fill:url(#linear-gradient-16);}.cls-60{fill:url(#linear-gradient-17);}.cls-61{fill:url(#linear-gradient-18);}.cls-62{fill:#a35b2b;}.cls-63{fill:url(#linear-gradient-19);}.cls-64{fill:url(#linear-gradient-20);}.cls-65{mask:url(#mask-11);}.cls-66{fill:url(#linear-gradient-21);}.cls-67{fill:#526866;}.cls-68{fill:url(#linear-gradient-22);}.cls-69{fill:#bfbf84;}.cls-70{mask:url(#mask-12);}.cls-71{fill:url(#linear-gradient-23);}.cls-72{fill:#8d8e75;}.cls-73{fill:#afaf91;}.cls-74{mask:url(#mask-13);}.cls-75{fill:url(#linear-gradient-24);}.cls-76{fill:url(#linear-gradient-25);}.cls-77{opacity:0.8;}.cls-78{fill:#001525;}.cls-80{fill:#966c33;}.cls-81{fill:url(#linear-gradient-26);}.cls-82{mask:url(#mask-14);}.cls-83{fill:url(#linear-gradient-27);}.cls-84{fill:#5b4f33;}.cls-85{fill:#d7eed8;}.cls-86{fill:#3a3022;}.cls-87{fill:url(#linear-gradient-28);}.cls-88{fill:#aa8022;}.cls-102,.cls-89,.cls-91{fill:#514735;}.cls-90{fill:#ffebbe;}.cls-92{mask:url(#mask-15);}.cls-93{fill:url(#linear-gradient-29);}.cls-94,.cls-98{fill:#8fb7b3;}.cls-95{fill:#705e42;}.cls-96{mask:url(#mask-16);}.cls-97{fill:url(#linear-gradient-30);}.cls-99{fill:#ffd9a5;}.cls-100{mask:url(#mask-17);}.cls-101{fill:url(#linear-gradient-31);}.cls-104{fill:#4f2e26;}.cls-105{fill:#493a26;}.cls-106{fill:#2d4951;}.cls-107{fill:url(#linear-gradient-32);}.cls-108{fill:#375860;}.cls-109{fill:#a5722f;}.cls-110{fill:#db9261;}.cls-111{fill:#457582;}.cls-112{fill:#f7ac74;}.cls-113,.cls-115{fill:#754e34;}.cls-114{fill:#513420;}.cls-116{fill:#564438;}.cls-117{fill:#d67254;}.cls-118{fill:#5a93a0;}.cls-119{fill:#633f1a;}.cls-120{fill:#3d250f;}.cls-121{fill:#756151;}.cls-122{fill:#c4972a;}.cls-123{mask:url(#mask-18);}.cls-124{fill:url(#linear-gradient-33);}.cls-125{filter:url(#luminosity-noclip-18);}.cls-126{filter:url(#luminosity-noclip-17);}.cls-127{filter:url(#luminosity-noclip-16);}.cls-128{filter:url(#luminosity-noclip-15);}.cls-129{filter:url(#luminosity-noclip-14);}.cls-130{filter:url(#luminosity-noclip-13);}.cls-131{filter:url(#luminosity-noclip-12);}.cls-132{filter:url(#luminosity-noclip-11);}.cls-133{filter:url(#luminosity-noclip-10);}.cls-134{filter:url(#luminosity-noclip-9);}.cls-135{filter:url(#luminosity-noclip-8);}.cls-136{filter:url(#luminosity-noclip-7);}.cls-137{filter:url(#luminosity-noclip-6);}.cls-138{filter:url(#luminosity-noclip-5);}.cls-139{filter:url(#luminosity-noclip-4);}.cls-140{filter:url(#luminosity-noclip-3);}.cls-141{filter:url(#luminosity-noclip-2);}.cls-142{filter:url(#luminosity-noclip);}</style><filter id="luminosity-noclip" x="130.39" y="-8492" width="32.58" height="32766" filterUnits="userSpaceOnUse" color-interpolation-filters="sRGB"><feFlood flood-color="#fff" result="bg"/><feBlend in="SourceGraphic" in2="bg"/></filter><mask id="mask" x="130.39" y="-8492" width="32.58" height="32766" maskUnits="userSpaceOnUse"><g class="cls-142"/></mask><linearGradient id="linear-gradient" x1="128.09" y1="316.3" x2="164.82" y2="316.3" gradientUnits="userSpaceOnUse"><stop offset="0.01" stop-color="#fff"/><stop offset="0.99"/></linearGradient><filter id="luminosity-noclip-2" x="89.21" y="-8492" width="57.08" height="32766" filterUnits="userSpaceOnUse" color-interpolation-filters="sRGB"><feFlood flood-color="#fff" result="bg"/><feBlend in="SourceGraphic" in2="bg"/></filter><mask id="mask-2" x="89.21" y="-8492" width="57.08" height="32766" maskUnits="userSpaceOnUse"><g class="cls-141"/></mask><linearGradient id="linear-gradient-2" x1="186.98" y1="496.22" x2="67.06" y2="444.52" gradientTransform="matrix(1, 0.04, -0.04, 1, 20.31, -9.51)" xlink:href="#linear-gradient"/><filter id="luminosity-noclip-3" x="89.49" y="-8492" width="18.07" height="32766" filterUnits="userSpaceOnUse" color-interpolation-filters="sRGB"><feFlood flood-color="#fff" result="bg"/><feBlend in="SourceGraphic" in2="bg"/></filter><mask id="mask-3" x="89.49" y="-8492" width="18.07" height="32766" maskUnits="userSpaceOnUse"><g class="cls-140"/></mask><linearGradient id="linear-gradient-3" x1="78.11" y1="442.69" x2="126.92" y2="442.69" gradientTransform="matrix(1, 0.04, -0.04, 1, 20.31, -9.51)" xlink:href="#linear-gradient"/><filter id="luminosity-noclip-4" x="90.18" y="-8492" width="56.12" height="32766" filterUnits="userSpaceOnUse" color-interpolation-filters="sRGB"><feFlood flood-color="#fff" result="bg"/><feBlend in="SourceGraphic" in2="bg"/></filter><mask id="mask-4" x="90.18" y="-8492" width="56.12" height="32766" maskUnits="userSpaceOnUse"><g class="cls-139"/></mask><linearGradient id="linear-gradient-4" x1="108.87" y1="455.53" x2="82.92" y2="442.05" gradientTransform="matrix(1, 0.04, -0.04, 1, 20.31, -9.51)" xlink:href="#linear-gradient"/><filter id="luminosity-noclip-5" x="473.81" y="-8492" width="51.91" height="32766" filterUnits="userSpaceOnUse" color-interpolation-filters="sRGB"><feFlood flood-color="#fff" result="bg"/><feBlend in="SourceGraphic" in2="bg"/></filter><mask id="mask-5" x="473.81" y="-8492" width="51.91" height="32766" maskUnits="userSpaceOnUse"><g class="cls-138"/></mask><linearGradient id="linear-gradient-5" x1="494.35" y1="485.27" x2="561.19" y2="485.27" gradientTransform="translate(-144.94 -98.55) rotate(-1.47) scale(1.18)" xlink:href="#linear-gradient"/><filter id="luminosity-noclip-6" x="145.46" y="-8492" width="38.73" height="32766" filterUnits="userSpaceOnUse" color-interpolation-filters="sRGB"><feFlood flood-color="#fff" result="bg"/><feBlend in="SourceGraphic" in2="bg"/></filter><mask id="mask-6" x="145.46" y="-8492" width="38.73" height="32766" maskUnits="userSpaceOnUse"><g class="cls-137"/></mask><linearGradient id="linear-gradient-6" x1="121.21" y1="470.53" x2="188.06" y2="470.53" gradientTransform="translate(11.77 49.14) rotate(-1.47) scale(0.88)" xlink:href="#linear-gradient"/><filter id="luminosity-noclip-7" x="129.66" y="-8492" width="69.83" height="32766" filterUnits="userSpaceOnUse" color-interpolation-filters="sRGB"><feFlood flood-color="#fff" result="bg"/><feBlend in="SourceGraphic" in2="bg"/></filter><mask id="mask-7" x="129.66" y="-8492" width="69.83" height="32766" maskUnits="userSpaceOnUse"><g class="cls-136"/></mask><linearGradient id="linear-gradient-7" x1="98.84" y1="337.48" x2="215.27" y2="419.12" gradientUnits="userSpaceOnUse"><stop offset="0.01" stop-color="#fff"/><stop offset="0.72" stop-color="#757575"/><stop offset="0.99"/></linearGradient><filter id="luminosity-noclip-8" x="330.34" y="-8492" width="45.92" height="32766" filterUnits="userSpaceOnUse" color-interpolation-filters="sRGB"><feFlood flood-color="#fff" result="bg"/><feBlend in="SourceGraphic" in2="bg"/></filter><mask id="mask-8" x="330.34" y="-8492" width="45.92" height="32766" maskUnits="userSpaceOnUse"><g class="cls-135"/></mask><linearGradient id="linear-gradient-8" x1="286.38" y1="284.72" x2="381.47" y2="359.4" xlink:href="#linear-gradient-7"/><filter id="luminosity-noclip-9" x="119.27" y="-8492" width="60.06" height="32766" filterUnits="userSpaceOnUse" color-interpolation-filters="sRGB"><feFlood flood-color="#fff" result="bg"/><feBlend in="SourceGraphic" in2="bg"/></filter><mask id="mask-9" x="119.27" y="-8492" width="60.06" height="32766" maskUnits="userSpaceOnUse"><g class="cls-134"/></mask><linearGradient id="linear-gradient-9" x1="117.42" y1="436.7" x2="206.54" y2="412.76" gradientTransform="matrix(1, 0.04, -0.04, 1, 20.31, -9.51)" xlink:href="#linear-gradient"/><clipPath id="clip-path" transform="translate(-50.68 -20.59)"><path class="cls-19" d="M443.81,479A213.71,213.71,0,0,0,498,336.5C498,218,402,122,283.5,122S69,218,69,336.5A213.71,213.71,0,0,0,123.19,479Z"/></clipPath><linearGradient id="linear-gradient-10" x1="92.44" y1="295.45" x2="93.4" y2="295.45" gradientUnits="userSpaceOnUse"><stop offset="0" stop-color="#eac324"/><stop offset="0.99" stop-color="#cb8924"/></linearGradient><filter id="luminosity-noclip-10" x="130.39" y="313.49" width="32.58" height="5.62" filterUnits="userSpaceOnUse" color-interpolation-filters="sRGB"><feFlood flood-color="#fff" result="bg"/><feBlend in="SourceGraphic" in2="bg"/></filter><mask id="mask-10" x="79.7" y="292.9" width="32.58" height="5.62" maskUnits="userSpaceOnUse"><g class="cls-133"><g transform="translate(-50.68 -20.59)"><g class="cls-1"><path class="cls-2" d="M162.93,315.73a1.91,1.91,0,0,0-.42-1.59,1.94,1.94,0,0,0-1.51-.65l-28.57,1.24a2.18,2.18,0,0,0-1.55.77,2.14,2.14,0,0,0-.47,1.65l.26,2,32.16-2.81Z"/></g></g></g></mask><linearGradient id="linear-gradient-11" x1="128.09" y1="316.3" x2="164.82" y2="316.3" gradientUnits="userSpaceOnUse"><stop offset="0.01" stop-color="#fff2c8"/><stop offset="0.99" stop-color="#ffae67"/></linearGradient><linearGradient id="linear-gradient-12" x1="242.71" y1="279.05" x2="260.44" y2="279.05" gradientTransform="translate(75.28) scale(0.92 1)" xlink:href="#linear-gradient-10"/><linearGradient id="linear-gradient-13" x1="266.53" y1="252.79" x2="272.41" y2="252.79" gradientTransform="matrix(-1.06, -0.41, -0.31, 0.8, 567.55, 181.97)" xlink:href="#linear-gradient-10"/><linearGradient id="linear-gradient-14" x1="210.93" y1="270.38" x2="215.21" y2="295.21" gradientTransform="matrix(-1, 0.01, 0.01, 1, 418.18, -2.42)" xlink:href="#linear-gradient-10"/><linearGradient id="linear-gradient-15" x1="238.7" y1="275.43" x2="244.58" y2="275.43" gradientTransform="matrix(-1.23, -0.2, -0.16, 0.99, 542.94, 50.57)" xlink:href="#linear-gradient-10"/><linearGradient id="linear-gradient-16" x1="133.31" y1="375.42" x2="265.98" y2="273.36" gradientUnits="userSpaceOnUse"><stop offset="0.02" stop-color="#4f7770"/><stop offset="0.89" stop-color="#3f362c"/></linearGradient><linearGradient id="linear-gradient-17" x1="47.43" y1="331.75" x2="326.37" y2="331.75" xlink:href="#linear-gradient-16"/><linearGradient id="linear-gradient-18" x1="281.75" y1="362.7" x2="285.61" y2="376.69" gradientTransform="matrix(-1, 0, 0, 1, 562.9, 0)" xlink:href="#linear-gradient-10"/><linearGradient id="linear-gradient-19" x1="79.59" y1="373.71" x2="358.54" y2="373.71" xlink:href="#linear-gradient-16"/><linearGradient id="linear-gradient-20" x1="63.51" y1="408.49" x2="342.45" y2="408.49" gradientUnits="userSpaceOnUse"><stop offset="0.02" stop-color="#4f7770"/><stop offset="0.54" stop-color="#44483f"/><stop offset="0.89" stop-color="#3f362c"/></linearGradient><filter id="luminosity-noclip-11" x="145.46" y="442.91" width="38.73" height="31.54" filterUnits="userSpaceOnUse" color-interpolation-filters="sRGB"><feFlood flood-color="#fff" result="bg"/><feBlend in="SourceGraphic" in2="bg"/></filter><mask id="mask-11" x="94.77" y="422.32" width="38.73" height="31.54" maskUnits="userSpaceOnUse"><g class="cls-132"><g transform="translate(-50.68 -20.59)"><g class="cls-11"><path class="cls-12" d="M182.25,454.41a41.38,41.38,0,0,0,1.93-4.26c-5.07-4.39-11-7.39-17-7.24-14.8.38-21.51,19-21.75,30.42C158.46,477.52,174.25,469.7,182.25,454.41Z"/></g></g></g></mask><linearGradient id="linear-gradient-21" x1="121.21" y1="470.53" x2="188.06" y2="470.53" gradientTransform="translate(11.77 49.14) rotate(-1.47) scale(0.88)" xlink:href="#linear-gradient-11"/><linearGradient id="linear-gradient-22" x1="401.98" y1="180.73" x2="476.16" y2="133.4" gradientUnits="userSpaceOnUse"><stop offset="0" stop-color="#c1552f"/><stop offset="1" stop-color="#ccb637"/></linearGradient><filter id="luminosity-noclip-12" x="129.66" y="341.22" width="69.83" height="85.18" filterUnits="userSpaceOnUse" color-interpolation-filters="sRGB"><feFlood flood-color="#fff" result="bg"/><feBlend in="SourceGraphic" in2="bg"/></filter><mask id="mask-12" x="78.97" y="320.63" width="69.83" height="85.18" maskUnits="userSpaceOnUse"><g class="cls-131"><g transform="translate(-50.68 -20.59)"><g class="cls-13"><path class="cls-14" d="M152.62,421.5c2.78,2.09,18.9,4.53,30.38-2.09,10.76-4.61,11.84-11.34,14.38-23.65,2.29-13.29,2.46-33.13,1.68-54.54-7.09,3.36-16.68,9-21.31,1.34-8.38,6.67-17.63,15.78-25.05,9.28-5.46,10.42-18.33,14.38-23,8.67,3.22,25.51,3.39,42.63,1.11,65.89C138.32,420.19,148.44,423.78,152.62,421.5Z"/></g></g></g></mask><linearGradient id="linear-gradient-23" x1="98.84" y1="337.48" x2="215.27" y2="419.12" gradientUnits="userSpaceOnUse"><stop offset="0.01" stop-color="#fff2c8"/><stop offset="0.72" stop-color="#ffcd94"/><stop offset="0.99" stop-color="#ffae67"/></linearGradient><filter id="luminosity-noclip-13" x="330.34" y="305.73" width="45.92" height="63.09" filterUnits="userSpaceOnUse" color-interpolation-filters="sRGB"><feFlood flood-color="#fff" result="bg"/><feBlend in="SourceGraphic" in2="bg"/></filter><mask id="mask-13" x="279.65" y="285.14" width="45.92" height="63.09" maskUnits="userSpaceOnUse"><g class="cls-130"><g transform="translate(-50.68 -20.59)"><g class="cls-15"><polygon class="cls-16" points="330.8 321.04 376.26 305.73 374.87 361.86 330.34 368.82 330.8 321.04"/></g></g></g></mask><linearGradient id="linear-gradient-24" x1="235.69" y1="264.13" x2="330.79" y2="338.81" xlink:href="#linear-gradient-23"/><linearGradient id="linear-gradient-25" x1="266.16" y1="370.99" x2="345.02" y2="341.3" gradientUnits="userSpaceOnUse"><stop offset="0.02" stop-color="#4f7770"/><stop offset="1" stop-color="#605147"/></linearGradient><linearGradient id="linear-gradient-26" x1="106.54" y1="477.42" x2="165.01" y2="477.42" gradientTransform="matrix(1, 0.04, -0.04, 1, 20.31, -9.51)" gradientUnits="userSpaceOnUse"><stop offset="0.02" stop-color="#8e7d5a"/><stop offset="0.99" stop-color="#5b4f33"/></linearGradient><filter id="luminosity-noclip-14" x="119.27" y="405.7" width="60.06" height="34.87" filterUnits="userSpaceOnUse" color-interpolation-filters="sRGB"><feFlood flood-color="#fff" result="bg"/><feBlend in="SourceGraphic" in2="bg"/></filter><mask id="mask-14" x="68.58" y="385.11" width="60.06" height="34.87" maskUnits="userSpaceOnUse"><g class="cls-129"><g transform="translate(-50.68 -20.59)"><g class="cls-17"><polygon class="cls-18" points="179.33 408.02 177.77 405.7 136.74 437.74 136.29 436.37 132.05 435.24 130.4 431.54 132.93 429.8 119.27 431.02 138.66 440.56 179.33 408.02"/></g></g></g></mask><linearGradient id="linear-gradient-27" x1="117.42" y1="436.7" x2="206.54" y2="412.76" gradientTransform="matrix(1, 0.04, -0.04, 1, -30.37, -30.1)" xlink:href="#linear-gradient-11"/><linearGradient id="linear-gradient-28" x1="112.97" y1="475.05" x2="116.02" y2="501.06" xlink:href="#linear-gradient-26"/><filter id="luminosity-noclip-15" x="89.21" y="454.4" width="57.08" height="17.08" filterUnits="userSpaceOnUse" color-interpolation-filters="sRGB"><feFlood flood-color="#fff" result="bg"/><feBlend in="SourceGraphic" in2="bg"/></filter><mask id="mask-15" x="38.53" y="433.81" width="57.08" height="17.08" maskUnits="userSpaceOnUse"><g class="cls-128"><g transform="translate(-50.68 -20.59)"><g class="cls-3"><polygon class="cls-4" points="146.29 454.4 91.05 455.95 89.21 457.17 93.04 471.48 135.16 469.52 135.89 469.26 136.05 458.37 146.29 454.4"/></g></g></g></mask><linearGradient id="linear-gradient-29" x1="186.98" y1="496.22" x2="67.06" y2="444.52" gradientTransform="matrix(1, 0.04, -0.04, 1, -30.37, -30.1)" xlink:href="#linear-gradient-11"/><filter id="luminosity-noclip-16" x="89.49" y="418.59" width="18.07" height="37.3" filterUnits="userSpaceOnUse" color-interpolation-filters="sRGB"><feFlood flood-color="#fff" result="bg"/><feBlend in="SourceGraphic" in2="bg"/></filter><mask id="mask-16" x="38.81" y="398" width="18.07" height="37.3" maskUnits="userSpaceOnUse"><g class="cls-127"><g transform="translate(-50.68 -20.59)"><g class="cls-5"><path class="cls-6" d="M107.57,418.59c-9.1,1.1-18.52,6.45-18.06,11.49l4.56,25.81,8.46-34.46Z"/></g></g></g></mask><linearGradient id="linear-gradient-30" x1="78.11" y1="442.69" x2="126.92" y2="442.69" gradientTransform="matrix(1, 0.04, -0.04, 1, 20.31, -9.51)" xlink:href="#linear-gradient-11"/><filter id="luminosity-noclip-17" x="90.18" y="454.4" width="56.12" height="3.97" filterUnits="userSpaceOnUse" color-interpolation-filters="sRGB"><feFlood flood-color="#fff" result="bg"/><feBlend in="SourceGraphic" in2="bg"/></filter><mask id="mask-17" x="39.49" y="433.81" width="56.12" height="3.97" maskUnits="userSpaceOnUse"><g class="cls-126"><g transform="translate(-50.68 -20.59)"><g class="cls-7"><polygon class="cls-8" points="136.05 458.37 146.29 454.4 90.17 457.52 136.05 458.37"/></g></g></g></mask><linearGradient id="linear-gradient-31" x1="108.87" y1="455.53" x2="82.92" y2="442.05" gradientTransform="matrix(1, 0.04, -0.04, 1, -30.37, -30.1)" xlink:href="#linear-gradient-11"/><linearGradient id="linear-gradient-32" x1="307.96" y1="447.42" x2="300.36" y2="490.5" xlink:href="#linear-gradient-10"/><filter id="luminosity-noclip-18" x="473.81" y="435.32" width="51.91" height="42.29" filterUnits="userSpaceOnUse" color-interpolation-filters="sRGB"><feFlood flood-color="#fff" result="bg"/><feBlend in="SourceGraphic" in2="bg"/></filter><mask id="mask-18" x="423.13" y="414.73" width="51.91" height="42.29" maskUnits="userSpaceOnUse"><g class="cls-125"><g transform="translate(-50.68 -20.59)"><g class="cls-9"><path class="cls-10" d="M523.13,450.74a53.7,53.7,0,0,0,2.59-5.71c-6.79-5.88-14.76-9.91-22.75-9.71-19.83.52-28.84,25.43-29.16,40.78C491.24,481.71,512.41,471.23,523.13,450.74Z"/></g></g></g></mask><linearGradient id="linear-gradient-33" x1="494.35" y1="485.27" x2="561.19" y2="485.27" gradientTransform="translate(-144.94 -98.55) rotate(-1.47) scale(1.18)" xlink:href="#linear-gradient-11"/></defs><title>construction</title><g class="cls-20"><g id="_3" data-name="3"><path class="cls-21" d="M443.81,479A213.71,213.71,0,0,0,498,336.5C498,218,402,122,283.5,122S69,218,69,336.5A213.71,213.71,0,0,0,123.19,479Z" transform="translate(-50.68 -20.59)"/></g><g id="_2" data-name="2"><g class="cls-22"><rect class="cls-23" x="53.32" y="352.41" width="54" height="113"/><rect class="cls-23" x="5.32" y="310.41" width="54" height="113"/><rect class="cls-23" x="280.32" y="393.41" width="54" height="71"/><rect class="cls-23" x="328.32" y="367.41" width="54" height="102"/><rect class="cls-23" x="335.32" y="280.41" width="54" height="137"/><rect class="cls-23" x="341.32" y="270.41" width="42" height="137"/><rect class="cls-23" x="347.32" y="258.91" width="30" height="137"/><polygon class="cls-23" points="439.32 310.41 422.32 301.41 409.32 310.41 409.32 431.91 439.32 431.91 439.32 310.41"/><rect class="cls-23" x="353.32" y="244.41" width="18" height="137"/><rect class="cls-23" x="9.32" y="300.41" width="46" height="113"/><rect class="cls-23" x="9.32" y="280.41" width="46" height="15"/><rect class="cls-23" x="17.32" y="280.71" width="30" height="23.91"/><rect class="cls-23" x="38.32" y="262.41" width="3" height="60"/><rect class="cls-23" x="431.32" y="293.41" width="3" height="60"/></g></g><g id="_1" data-name="1"><polygon class="cls-24" points="399.97 92.61 303.61 0.88 302.52 2.88 398.86 94.57 399.97 92.61"/><polygon class="cls-24" points="405.85 96.69 404.04 96.27 437.81 192.24 440.49 192.25 405.85 96.69"/><path class="cls-25" d="M543.43,478.48c0-7.94-113.24-5.56-248.26-5.56S50.68,479.35,50.68,487.29s109.46,14.38,244.49,14.38S543.43,486.42,543.43,478.48Z" transform="translate(-50.68 -20.59)"/><path class="cls-26" d="M525.5,476.36c0-2.2-25.27-4-56.44-4s-56.44,1.78-56.44,4a.34.34,0,0,0,.07.18c-23.58-2-68.5-3.31-120.06-3.31-76,0-137.61,2.9-137.61,6.49s61.61,6.49,137.61,6.49c45.59,0,86-1,111-2.66-5.36,1.19-8.47,2.58-8.47,4.08,0,4.26,25.13,7.72,56.13,7.72s56.14-3.46,56.14-7.72c0-3.38-15.83-6.25-37.84-7.3C500.53,480.31,525.5,478.54,525.5,476.36Z" transform="translate(-50.68 -20.59)"/><path class="cls-26" d="M390.35,480.65c-29.89-2.06-65.77-3.8-80.63-.61C320.1,487.24,384.87,487.74,390.35,480.65Z" transform="translate(-50.68 -20.59)"/><rect class="cls-27" x="284.9" y="259.99" width="78.86" height="2.78" transform="translate(4.54 558.76) rotate(-88.62)"/><rect class="cls-27" x="278.41" y="271.59" width="78.86" height="2.78" transform="translate(-13.45 563.53) rotate(-88.61)"/><rect class="cls-27" x="290.47" y="284.12" width="78.86" height="2.78" transform="matrix(0.02, -1, 1, 0.02, -14.26, 587.75)"/><rect class="cls-27" x="214.74" y="210.58" width="2.13" height="73.84" transform="translate(-69.11 -3.23) rotate(-4.42)"/><rect class="cls-27" x="208.97" y="222.53" width="2.13" height="73.84" transform="translate(-69.88 -3.79) rotate(-4.38)"/><rect class="cls-27" x="226.1" y="231.37" width="2.14" height="73.84" transform="matrix(1, -0.08, 0.08, 1, -70.39, -2.57)"/><polygon class="cls-27" points="348.01 409.65 343.19 458.92 352.04 459.28 357.14 409.65 348.01 409.65"/><polygon class="cls-27" points="331.31 408.49 326.49 457.76 335.34 458.12 340.44 408.49 331.31 408.49"/><polygon class="cls-27" points="312.06 407.56 307.24 456.83 316.09 457.2 321.19 407.56 312.06 407.56"/><rect class="cls-28" x="272.83" y="372.22" width="210.14" height="4.11" transform="translate(-58.59 719.82) rotate(-88.23)"/><rect class="cls-28" x="263.18" y="378.01" width="193.38" height="6.94" transform="translate(-83.18 708.87) rotate(-88.24)"/><polygon class="cls-29" points="305.32 176.99 299.16 174 291.12 179.57 284.96 433.29 294.95 433.69 305.32 176.99"/><polygon class="cls-30" points="300.96 284.85 305.32 176.99 299.16 174 298.9 174.19 293.82 285.33 300.96 284.85"/><polygon class="cls-29" points="208.75 138.14 203.6 134.8 198.74 138.14 198.74 249.3 208.75 249.3 208.75 138.14"/><polygon class="cls-30" points="209.21 250.69 209.21 139.53 204.06 136.19 203.83 136.35 203.83 250.69 209.21 250.69"/><path class="cls-31" d="M483.1,232.61l.15-8.79L355.39,20.59S342,26.9,340.63,27.39s-6.43,16.87-6.43,16.87L475.62,231.49Z" transform="translate(-50.68 -20.59)"/><polygon class="cls-24" points="445.24 377.66 379.17 381.33 379.07 389.79 445 390.12 445.24 377.66"/><polygon class="cls-24" points="442.62 362.56 377.94 371.01 377.85 379.41 442.39 374.89 442.62 362.56"/><polygon class="cls-24" points="440.07 347.83 376.73 360.86 376.64 369.2 439.84 360.03 440.07 347.83"/><polygon class="cls-32" points="376.73 360.86 376.64 369.2 432.52 361.1 438.38 348.18 376.73 360.86"/><polygon class="cls-32" points="377.94 371.01 377.85 379.41 425.74 376.05 431.18 364.06 377.94 371.01"/><polygon class="cls-32" points="379.17 381.33 379.07 389.79 419.41 389.99 424.49 378.81 379.17 381.33"/><polygon class="cls-33" points="446.32 437.76 425.64 432.86 412.79 447.5 412.69 453.84 441.94 454.02 446.32 437.76"/><polygon class="cls-33" points="406.3 446.27 388.18 433.06 365.77 436.5 369.04 454.18 404.98 453.4 406.3 446.27"/><polygon class="cls-33" points="383.44 420.87 388.74 437.04 404.69 445.07 416.06 446.33 433.89 438.48 439.07 422.97 383.44 420.87"/><polygon class="cls-24" points="141.24 186.14 135.64 182.58 131.25 186.8 148.02 439.86 158.01 439.2 141.24 186.14"/><polygon class="cls-30" points="147.65 282.93 141.24 186.14 135.64 182.58 134.6 183.59 142.14 285.79 147.65 282.93"/><polygon class="cls-24" points="243.35 187.72 239.78 184.9 236.47 187.56 230.78 433.46 237.65 433.62 243.35 187.72"/><polygon class="cls-30" points="241.56 264.69 243.35 187.72 239.86 184.96 238.62 264.69 241.56 264.69"/><polygon class="cls-31" points="410.13 161.54 393.33 153.16 393.46 402.92 418.08 402.31 410.13 161.54"/><polygon class="cls-31" points="450.59 397.8 427.39 390.44 375.64 407.63 380.29 429.23 445.01 431.98 450.59 397.8"/><polygon class="cls-31" points="391.48 148.62 399.76 91.54 402.56 93.05 395.41 148.95 391.48 148.62"/><polygon class="cls-31" points="405.27 163.38 400.46 91.73 403.59 92.18 409.58 162.83 405.27 163.38"/><polygon class="cls-34" points="437.86 405.94 407.63 398.13 402.48 173.35 393.34 169.41 393.46 401.71 375.64 407.63 380.29 429.23 389.27 429.61 383.25 410.17 437.86 405.94"/><rect class="cls-35" x="141.31" y="286.14" width="2.05" height="13.39" transform="translate(-203.62 135.05) rotate(-39.16)"/><rect class="cls-36" x="68.16" y="267.56" width="0.7" height="72.35"/><rect class="cls-37" x="92.44" y="294.73" width="0.96" height="1.45"/><polygon class="cls-38" points="100.64 266.27 96.29 265.31 91.47 296.18 100.64 296.18 100.64 266.27"/><polygon class="cls-39" points="100.64 283.03 93.52 283.03 92.62 288.82 100.64 288.82 100.64 283.03"/><g class="cls-40"><polygon class="cls-35" points="95.81 295.37 100.64 294.3 100.64 269.96 98.22 270.19 95.81 295.37"/></g><polygon class="cls-38" points="95.75 262.9 72.84 263.86 72.84 266.75 96.11 268.68 95.75 262.9"/><polygon class="cls-35" points="96.11 268.68 95.91 265.47 72.84 265.47 72.84 265.52 73.38 266.8 96.11 268.68"/><path class="cls-35" d="M144.57,287.34a4.34,4.34,0,1,0,4.34-4.34A4.34,4.34,0,0,0,144.57,287.34Z" transform="translate(-50.68 -20.59)"/><path class="cls-35" d="M125.27,287.34a4.1,4.1,0,1,0-4.1,4.1A4.1,4.1,0,0,0,125.27,287.34Z" transform="translate(-50.68 -20.59)"/><path class="cls-35" d="M162.93,315.73a1.91,1.91,0,0,0-.42-1.59,1.94,1.94,0,0,0-1.51-.65l-28.58,1.24a2.14,2.14,0,0,0-1.54.77,2.11,2.11,0,0,0-.48,1.65l.77,5.77L161.93,321Z" transform="translate(-50.68 -20.59)"/><path class="cls-38" d="M124.07,287.34a2.9,2.9,0,1,0-2.9,2.9A2.9,2.9,0,0,0,124.07,287.34Z" transform="translate(-50.68 -20.59)"/><path class="cls-38" d="M145.47,287.34a3.44,3.44,0,1,0,3.44-3.43A3.44,3.44,0,0,0,145.47,287.34Z" transform="translate(-50.68 -20.59)"/><g class="cls-41"><path class="cls-42" d="M162.93,315.73a1.91,1.91,0,0,0-.42-1.59,1.94,1.94,0,0,0-1.51-.65l-28.57,1.24a2.18,2.18,0,0,0-1.55.77,2.14,2.14,0,0,0-.47,1.65l.26,2,32.16-2.81Z" transform="translate(-50.68 -20.59)"/></g><rect class="cls-43" x="136.93" y="322.31" width="2.25" height="3.06" transform="translate(-74.74 -9.24) rotate(-4.33)"/><rect class="cls-43" x="155.5" y="321.35" width="2.25" height="3.06" transform="translate(-77.44 -6.18) rotate(-4.85)"/><path class="cls-43" d="M120.81,358.25a2.21,2.21,0,0,0-3.38.24c-.73,1.09-.12,4.22,1.93,5.9C121.29,362.1,121.67,359.25,120.81,358.25Z" transform="translate(-50.68 -20.59)"/><path class="cls-35" d="M120.81,364.76a1.33,1.33,0,1,0-1.33,1.32A1.32,1.32,0,0,0,120.81,364.76Z" transform="translate(-50.68 -20.59)"/><path class="cls-44" d="M122.08,373v0c-3.17-1.59-1.76-7-2.43-7s-1.23,1.58-1.23,3.52a9.29,9.29,0,0,0,.11,1.45,4.11,4.11,0,0,0,.4,1.41l0,.1a3.66,3.66,0,0,0,3.22,2,3.86,3.86,0,0,0,3.71-4C124.86,369.81,124.85,373.61,122.08,373Z" transform="translate(-50.68 -20.59)"/><polygon class="cls-45" points="111.25 298.75 80.22 301 80.22 302.77 111.25 300.52 111.25 298.75"/><path class="cls-46" d="M146.13,287.34a2.78,2.78,0,1,0,2.78-2.77A2.78,2.78,0,0,0,146.13,287.34Z" transform="translate(-50.68 -20.59)"/><path class="cls-46" d="M118.94,287.34a2.34,2.34,0,1,0,2.34-2.33A2.34,2.34,0,0,0,118.94,287.34Z" transform="translate(-50.68 -20.59)"/><path class="cls-47" d="M315.83,274.17,313,265.39l0-.09h-.06l0-.05-.12,0-8.08-.86c-1.81,3.34-3,6.85-4.64,14.1-.91,2-.75,15,0,15h2.32c-1.11-5.35-1.1-8.66,0-14.58l4.31.53c.86,5.33,1.75,9,0,14.22H309c1.51-4.87.62-9.66,0-15.85-.25-4.49.64-6.34,2.74-8.65l1.87,5.71Z" transform="translate(-50.68 -20.59)"/><path class="cls-30" d="M300.28,284.31a29.18,29.18,0,0,0,1.4,9.22h.6c-1.12-5.35-1.11-8.67,0-14.59l4.34.53c.86,5.33,1.76,9,0,14.22H309c1.52-4.86.63-9.66,0-15.85-.25-4.49.64-6.34,2.76-8.65l1.88,5.71,2.22-.73-2.8-8.5a7,7,0,0,0-2.22-.38C304.46,265.29,300.28,274.46,300.28,284.31Z" transform="translate(-50.68 -20.59)"/><path class="cls-48" d="M304.7,264.41c-1.7.49-2,1.68-1.55,3.51.26,2.54.65,4.58,2.26,6.5l1.62-1.75A19.42,19.42,0,0,1,304.7,264.41Z" transform="translate(-50.68 -20.59)"/><rect class="cls-49" x="314.66" y="274.01" width="1.5" height="5.08" transform="translate(-116.59 81.14) rotate(-16.61)"/><rect class="cls-49" x="307.31" y="272.46" width="1.5" height="6.8" transform="translate(-155.03 225.03) rotate(-37.65)"/><path class="cls-49" d="M312.54,264a3.14,3.14,0,1,0-3.13,2.87A3,3,0,0,0,312.54,264Z" transform="translate(-50.68 -20.59)"/><path class="cls-30" d="M307.28,264.21a2.86,2.86,0,0,0,1.8,2.59l.33,0a3,3,0,0,0,3.13-2.87,2.86,2.86,0,0,0-1.8-2.6l-.33,0A3,3,0,0,0,307.28,264.21Z" transform="translate(-50.68 -20.59)"/><path class="cls-45" d="M312.17,265.28a2.62,2.62,0,0,0,.37-1.32,2.86,2.86,0,0,0-1.8-2.6,3.27,3.27,0,0,0-1.33-.28,3,3,0,0,0-3.13,2.88,2.63,2.63,0,0,0,.35,1.29A9.42,9.42,0,0,0,312.17,265.28Z" transform="translate(-50.68 -20.59)"/><path class="cls-50" d="M313.54,263.83a4.3,4.3,0,0,0-4.51-4,4,4,0,0,0-3.67,3.5C305.36,266.19,313.54,265.58,313.54,263.83Z" transform="translate(-50.68 -20.59)"/><path class="cls-51" d="M312.3,261.09a4,4,0,0,0-3.27-1.26,4,4,0,0,0-3.67,3.5,1.52,1.52,0,0,0,.84,1.3,8.73,8.73,0,0,0,1.89-.36A6.71,6.71,0,0,0,312.3,261.09Z" transform="translate(-50.68 -20.59)"/><polygon class="cls-49" points="149.59 247.63 150.91 247.96 151.47 251.31 150.4 251.67 149.59 247.63"/><rect class="cls-52" x="200.34" y="268.13" width="0.96" height="3" transform="translate(-53.11 -18.76) rotate(-0.52)"/><path class="cls-53" d="M202.34,271.48c.27,1.89,1.27,2.85,4,2.85.41.91.23,1.33-.63,1.63a5,5,0,0,1-5-4.23Z" transform="translate(-50.68 -20.59)"/><path class="cls-54" d="M203.57,286.1,203,273.92l5.73-1.34,1.35,13c-.18,4.95.29,9.09,2,11.77l-2.44.37c-1.36-2-1.92-7.1-1.91-12l-1.53.12c-.54,4.89-.77,8.77.24,12.38l-2.57,0a45.7,45.7,0,0,1-.23-12.21Z" transform="translate(-50.68 -20.59)"/><path class="cls-55" d="M200.52,272.84c.7,2.07,1.69,2.74,4.62,2.05.63.92.54,1.45-.32,2a5.31,5.31,0,0,1-6.27-3.54Z" transform="translate(-50.68 -20.59)"/><path class="cls-49" d="M209.06,271.1a3,3,0,1,1-3-2.49A2.79,2.79,0,0,1,209.06,271.1Z" transform="translate(-50.68 -20.59)"/><rect class="cls-52" x="197.43" y="265.89" width="4.39" height="2.89" transform="matrix(1, -0.01, 0.01, 1, -53.38, -18.55)"/><polygon class="cls-49" points="148.57 247.92 150.03 248.27 149.37 252.65 148.18 253.11 148.57 247.92"/><rect class="cls-52" x="196.93" y="266.56" width="0.96" height="1.64" transform="translate(-53.39 -18.57) rotate(-0.58)"/><rect class="cls-52" x="194.43" y="267.29" width="2.96" height="0.36" transform="translate(-53.37 -18.6) rotate(-0.58)"/><path class="cls-50" d="M202.51,268.92a3.49,3.49,0,0,1,4.66-1.43c2,.85,3.22,3,2.59,4.49s-2.54,1.25-4.54.4S201.88,270.41,202.51,268.92Z" transform="translate(-50.68 -20.59)"/><path class="cls-51" d="M206.56,269.43a4,4,0,0,1,2.67,1.83s0,0,0,.05c-.53,1.26-2.15,1.06-3.85.34a4.5,4.5,0,0,1-2.25-1.64C203.66,269.32,205.06,269.06,206.56,269.43Z" transform="translate(-50.68 -20.59)"/><path class="cls-30" d="M206.1,286.34c-.51,4.68-.7,8.45.28,12h-.46a19.5,19.5,0,0,1,.18-12Z" transform="translate(-50.68 -20.59)"/><polygon class="cls-56" points="357.92 304.5 214.42 232.76 79.52 303.88 79.98 308.99 212.57 338.52 358.54 310.15 357.92 304.5"/><polygon class="cls-57" points="358.54 310.07 215.04 238.32 79.59 308.83 213.19 344.09 358.54 310.07"/><polygon class="cls-24" points="132.86 305.74 215.2 269.09 301.71 308.06 297.49 333.74 135.68 332.88 132.86 305.74"/><polygon class="cls-58" points="215.66 280.07 199.43 288.35 199.43 297.39 187.48 301.8 187.6 291.59 133.71 313.78 135.38 334.53 214.12 335.89 215.66 280.07"/><polygon class="cls-24" points="148.63 286.95 144.22 284.63 137.97 288.09 141.1 335.4 151.08 334.74 148.63 286.95"/><polygon class="cls-30" points="150.99 332.9 148.63 286.95 144.22 284.63 143.48 285.05 146.67 333.18 150.99 332.9"/><polygon class="cls-30" points="297.49 333.74 301.71 308.06 215.2 269.09 214.3 333.3 297.49 333.74"/><polygon class="cls-30" points="223.09 279.76 223.39 298.01 242.88 305.74 243.19 287.49 223.09 279.76"/><polygon class="cls-59" points="223.39 284.71 223.24 294.76 240.56 300.95 240.09 291.21 223.39 284.71"/><polygon class="cls-30" points="264.52 294.3 264.83 312.54 284.32 320.27 284.63 302.03 264.52 294.3"/><polygon class="cls-56" points="357.92 340.76 214.42 292.13 78.97 339.92 80.21 343.78 212.57 363.82 358.54 344.47 357.92 340.76"/><polygon class="cls-60" points="358.54 344.54 215.04 295.91 79.59 343.7 213.19 367.59 358.54 344.54"/><polygon class="cls-24" points="133.24 344.71 215.04 317.18 297.62 347.03 297.49 373.32 135.68 372.46 133.24 344.71"/><polygon class="cls-58" points="214.27 339.72 207.78 342.5 207.89 348.94 176.41 355.61 172.93 347.14 167.65 371.84 214.73 379.5 214.27 339.72"/><path class="cls-61" d="M277.5,368.11a13.93,13.93,0,0,1,1.15-7l-4.11-4.58,1.35-1.12,4.38,3.82,5.05,1.08a14.79,14.79,0,0,0-1.75,10.36h0l1.29,8.8-1.91.26-1.38-9.38-2.27-.35-.48,9-1.93-.1.58-10.77Z" transform="translate(-50.68 -20.59)"/><path class="cls-62" d="M281.2,355.74a3.4,3.4,0,0,1,4.68-.1,3.09,3.09,0,0,1,.23,4.49C284.88,361.41,280,357,281.2,355.74Z" transform="translate(-50.68 -20.59)"/><path class="cls-49" d="M280.86,358a2.82,2.82,0,1,1,2.79,2.39A2.61,2.61,0,0,1,280.86,358Z" transform="translate(-50.68 -20.59)"/><path class="cls-50" d="M284.31,357.23a6.59,6.59,0,0,0-3-1.58,3.4,3.4,0,0,1,4.57,0,3.09,3.09,0,0,1,.3,4.4A6.23,6.23,0,0,0,284.31,357.23Z" transform="translate(-50.68 -20.59)"/><path class="cls-30" d="M277.67,364.29a14.64,14.64,0,0,1,1-3.18l-4.11-4.58,1.35-1.12,4.38,3.82,1.24.27a2.2,2.2,0,0,1-.65-1.52,2.17,2.17,0,0,1,.3-1.06,1,1,0,0,1,0-1.18l.11-.09h0a3.35,3.35,0,0,1,2.25-.89h.08a3.08,3.08,0,0,1,.53,0l.2.06a2.6,2.6,0,0,1,.4.1,2,2,0,0,1,.33.16c.08,0,.17.07.25.12a3.28,3.28,0,0,1,.53.39,3.37,3.37,0,0,1,.45.48c.05.08.09.16.15.24s.12.19.17.29.1.26.15.4a1.15,1.15,0,0,1,.06.17,3.34,3.34,0,0,1,.09.52s0,.05,0,.07a2.58,2.58,0,0,1-.7,2.16c-.19.2-.42.66-.76.62a16.74,16.74,0,0,0-1.88,4.12,12.24,12.24,0,0,0-3.75-.72A8.72,8.72,0,0,0,277.67,364.29Z" transform="translate(-50.68 -20.59)"/><polygon class="cls-48" points="228.34 337.94 229.29 336.49 234.89 339.87 233.94 341.32 228.34 337.94"/><polygon class="cls-49" points="221.33 331.27 225.1 335.07 224.17 335.92 220.4 332.12 221.33 331.27"/><polygon class="cls-30" points="221.76 332.21 225.1 335.07 224.17 335.92 220.4 332.12 221.76 332.21"/><polygon class="cls-49" points="224.66 333.9 229.26 336.72 228.57 337.77 223.96 334.94 224.66 333.9"/><polygon class="cls-30" points="297.49 373.32 297.62 347.03 215.04 316.41 213.34 370.07 297.49 373.32"/><polygon class="cls-56" points="357.61 377.87 215.43 347.03 79.52 377.18 79.63 381.24 212.57 393.69 358.3 381.7 357.61 377.87"/><polygon class="cls-30" points="156.75 369.6 159.22 359.4 110.21 370.37 109.44 373.78 156.75 369.6"/><polygon class="cls-63" points="358.54 381.68 215.04 351.38 79.59 381.16 213.19 396.04 358.54 381.68"/><polygon class="cls-24" points="133.24 381.89 217.56 367.37 297.62 382.25 297.49 419.24 135.68 418.39 133.24 381.89"/><polygon class="cls-58" points="216.59 385.53 179.48 389.47 166.03 410.34 214.27 417.54 216.59 385.53"/><polygon class="cls-30" points="217.83 367.28 216.59 419.39 297.77 419.85 297.77 382.13 217.83 367.28"/><polygon class="cls-56" points="357.84 407.33 213.81 391.33 79.75 406.87 79.52 410.58 212.57 419.36 358.3 410.92 357.84 407.33"/><path class="cls-30" d="M192.13,426.53c5.11-2.16,6.94-3.72,8.35-7.12l-56.29,6-.31,4.8Z" transform="translate(-50.68 -20.59)"/><polygon class="cls-64" points="358.54 410.89 215.04 397.13 79.59 410.65 213.34 419.85 358.54 410.89"/><path class="cls-36" d="M198.22,474.43c-.29-11.27-15.62-31.92-31-31.52s-22.05,20.5-21.76,31.77C158.1,475.68,197.61,478.4,198.22,474.43Z" transform="translate(-50.68 -20.59)"/><g class="cls-65"><path class="cls-66" d="M182.25,454.41a41.38,41.38,0,0,0,1.93-4.26c-5.07-4.39-11-7.39-17-7.24-14.8.38-21.51,19-21.75,30.42C158.46,477.52,174.25,469.7,182.25,454.41Z" transform="translate(-50.68 -20.59)"/></g><polygon class="cls-67" points="118.17 413.62 213.55 405.35 314.62 413.21 315.31 458.45 121.11 457.43 118.17 413.62"/><polygon class="cls-30" points="213.55 405.35 217.05 456.96 300.55 459.28 304.73 411.5 213.55 405.35"/><path class="cls-34" d="M351.7,38.73l4.85-16.3-1.16-1.84S342,26.9,340.63,27.39s-6.43,16.87-6.43,16.87L442,187l9.27.18Z" transform="translate(-50.68 -20.59)"/><polygon class="cls-31" points="317.25 55.51 314.8 55.51 314.65 304.24 317.06 304.25 317.25 55.51"/><polygon class="cls-68" points="416.52 156.37 405.79 158.15 402.12 180.46 411.42 190.39 423.01 187.45 425.8 167.5 416.52 156.37"/><path class="cls-69" d="M202.79,339.32c1.09,24.09,1.15,46.93-1.39,61.69-2.54,12.32-3.62,19.05-14.38,23.66-11.48,6.62-27.6,4.18-30.38,2.09-4.23,2.3-16.37,5.23-24.54,5.26a4,4,0,0,1-4-4.47c2.61-23.68,4.82-41.25,1.57-67,9.57,1.79,17.58,1.75,23-8.67,9.78,1.05,16.67-2.61,25-9.27C188.18,345.62,193.63,344.3,202.79,339.32Z" transform="translate(-50.68 -20.59)"/><g class="cls-70"><path class="cls-71" d="M152.62,421.5c2.78,2.09,18.9,4.53,30.38-2.09,10.76-4.61,11.84-11.34,14.38-23.65,2.29-13.29,2.46-33.13,1.68-54.54-7.09,3.36-16.68,9-21.31,1.34-8.38,6.67-17.63,15.78-25.05,9.28-5.46,10.42-18.33,14.38-23,8.67,3.22,25.51,3.39,42.63,1.11,65.89C138.32,420.19,148.44,423.78,152.62,421.5Z" transform="translate(-50.68 -20.59)"/></g><path class="cls-69" d="M155.29,390.67a50.6,50.6,0,0,1-.72,10.86c-2.06,12.1-7.64,21.3-12.68,21.14,1.6,3,3.6,4.79,5.78,4.79,5.25,0,9.51-10.32,9.51-23A47.68,47.68,0,0,0,155.29,390.67Z" transform="translate(-50.68 -20.59)"/><path class="cls-27" d="M202.64,340.32a2.4,2.4,0,1,0-2.39,2.4A2.4,2.4,0,0,0,202.64,340.32Z" transform="translate(-50.68 -20.59)"/><path class="cls-27" d="M179.37,343.34a2.4,2.4,0,1,0-2.4,2.4A2.41,2.41,0,0,0,179.37,343.34Z" transform="translate(-50.68 -20.59)"/><path class="cls-27" d="M156.17,352.62a2.4,2.4,0,1,0-2.39,2.39A2.39,2.39,0,0,0,156.17,352.62Z" transform="translate(-50.68 -20.59)"/><polygon class="cls-30" points="261.12 338.83 261.43 357.08 281.84 361.4 281.23 346.56 261.12 338.83"/><polygon class="cls-59" points="261.19 343.02 261.43 357.08 278.9 360.78 278.44 349.65 261.19 343.02"/><polygon class="cls-59" points="264.83 299.25 264.68 309.3 282 315.48 281.53 305.74 264.83 299.25"/><polygon class="cls-59" points="134.48 457.89 129.84 418.93 147.94 417.54 154.89 458.36 134.48 457.89"/><polygon class="cls-30" points="135.88 424.03 139.59 457.43 154.89 458.36 147.47 423.56 135.88 424.03"/><polygon class="cls-59" points="170.67 456.5 166.03 417.54 184.12 416.14 191.08 456.96 170.67 456.5"/><polygon class="cls-30" points="172.06 422.64 175.77 456.04 191.08 456.96 183.66 422.17 172.06 422.64"/><rect class="cls-72" x="268.54" y="449.08" width="22.73" height="11.13"/><rect class="cls-72" x="270.86" y="437.48" width="22.73" height="11.13"/><rect class="cls-72" x="282.46" y="427.28" width="22.73" height="11.13"/><rect class="cls-72" x="288.49" y="449.54" width="22.73" height="11.13"/><rect class="cls-72" x="293.59" y="437.48" width="22.73" height="11.13"/><rect class="cls-72" x="301.71" y="428.67" width="22.73" height="11.13"/><rect class="cls-72" x="317.48" y="439.57" width="13.92" height="11.13"/><rect class="cls-72" x="312.15" y="450.01" width="13.92" height="11.13"/><rect class="cls-72" x="295.22" y="451.86" width="13.92" height="11.13"/><rect class="cls-72" x="274.57" y="440.5" width="11.13" height="11.13"/><rect class="cls-73" x="269.94" y="438.18" width="4.64" height="11.13"/><rect class="cls-72" x="299.85" y="438.87" width="13.92" height="11.13"/><rect class="cls-72" x="303.8" y="427.28" width="13.92" height="11.13"/><rect class="cls-72" x="308.21" y="451.86" width="13.91" height="11.13"/><rect class="cls-72" x="310.29" y="440.96" width="13.92" height="11.13"/><rect class="cls-72" x="308.67" y="435.86" width="13.92" height="11.13"/><rect class="cls-72" x="322.12" y="449.77" width="13.92" height="11.13"/><rect class="cls-73" x="281.3" y="451.63" width="13.92" height="11.13"/><rect class="cls-73" x="285.94" y="439.34" width="13.92" height="11.13"/><rect class="cls-73" x="294.75" y="427.74" width="9.28" height="10.21"/><polygon class="cls-34" points="403.66 171.08 402.18 180.09 418.84 177.71 403.66 171.08"/><polygon class="cls-59" points="416.67 156.99 418.84 177.71 422.86 187.3 425.95 167.81 416.67 156.99"/><rect class="cls-72" x="160.3" y="450.16" width="19.18" height="10.21"/><path class="cls-28" d="M220.72,468.46c-2.24-2.8-7.9-2-12.63,1.79s-6.75,9.14-4.51,11.94,7.9,2,12.63-1.8S223,471.25,220.72,468.46Zm-5.25,11c-3.87,3.11-8.5,3.77-10.34,1.47s-.18-6.66,3.69-9.76,8.51-3.76,10.35-1.47S219.35,476.36,215.47,479.46Z" transform="translate(-50.68 -20.59)"/><path class="cls-28" d="M217.56,467.36c-2.24-2.8-7.9-2-12.63,1.8s-6.75,9.13-4.5,11.93,7.89,2,12.63-1.8S219.81,470.16,217.56,467.36Zm-5.24,11c-3.88,3.1-8.51,3.76-10.34,1.47s-.19-6.67,3.69-9.77,8.5-3.76,10.34-1.47S216.19,475.27,212.32,478.37Z" transform="translate(-50.68 -20.59)"/><polygon class="cls-59" points="179.71 378.11 180.87 395.04 195.95 393.18 194.56 376.02 179.71 378.11"/><polygon class="cls-59" points="183.49 394.71 195.95 393.18 194.75 378.47 182.5 380.19 183.49 394.71"/><polygon class="cls-59" points="254.86 331.25 255.09 355.38 220.07 347.72 219.6 318.73 254.86 331.25"/><polygon class="cls-59" points="251.15 330.09 219.61 318.89 220.06 347.37 251.38 354.21 251.15 330.09"/><polygon class="cls-59" points="258.34 375.09 258.8 395.96 223.32 392.37 223.01 368.21 258.34 375.09"/><polygon class="cls-59" points="254.74 374.51 223.01 368.37 223.32 392.02 255.21 395.5 254.74 374.51"/><polygon class="cls-59" points="259.58 412.43 262.64 456.88 227 458 222.75 408.87 259.58 412.43"/><polygon class="cls-59" points="255.94 412.33 222.78 409.03 226.94 457.65 259.01 456.89 255.94 412.33"/><polygon class="cls-59" points="207.62 319.97 207.83 348.76 172.81 356.59 172.98 330.63 207.62 319.97"/><polygon class="cls-59" points="207.78 320.92 176.7 329.25 176.47 355.72 207.83 348.71 207.78 320.92"/><polygon class="cls-59" points="187.48 301.58 199.34 297.46 199.27 281.98 187.64 286.25 187.48 301.58"/><polygon class="cls-56" points="280.12 300.45 325.58 285.14 324.19 341.27 279.65 348.23 280.12 300.45"/><g class="cls-74"><polygon class="cls-75" points="280.12 300.45 325.58 285.14 324.19 341.27 279.65 348.23 280.12 300.45"/></g><polygon class="cls-24" points="325.35 284.68 355.73 311.12 352.02 356.35 323.95 341.04 325.35 284.68"/><polygon class="cls-76" points="279.65 348.23 314.91 359.37 352.02 356.35 323.95 341.04 279.65 348.23"/><polygon class="cls-59" points="291.25 309.73 289.86 330.6 311.2 326.43 310.27 302.31 291.25 309.73"/><g class="cls-77"><polygon class="cls-78" points="291.9 330.21 311.2 326.43 310.38 305.31 293.11 312.05 291.9 330.21"/></g><polygon class="cls-59" points="434.92 435.01 435.54 431.3 386.37 429.13 388.23 433.79 389.58 453.74 404.98 453.4 406.3 446.27 404.57 445.01 404.69 445.07 414.01 446.1 412.79 447.5 412.69 453.84 417.8 453.88 422.24 434.7 434.92 435.01"/><polygon class="cls-26" points="394.75 397.36 403.31 372.77 403.53 392.49 394.75 397.36"/><polygon class="cls-26" points="394.75 391.56 394.75 356.54 402.32 369.99 394.75 391.56"/><polygon class="cls-26" points="394.97 346.33 394.97 311.31 402.54 324.76 394.97 346.33"/><polygon class="cls-26" points="395.19 299.71 395.19 264.69 402.76 278.14 395.19 299.71"/><polygon class="cls-26" points="395.07 250.94 395.07 218.83 402.01 231.16 395.07 250.94"/><polygon class="cls-26" points="395.19 352.36 402.98 366.51 402.43 330.09 395.19 352.36"/><polygon class="cls-26" points="394.75 306.67 402.54 320.82 402 284.4 394.75 306.67"/><polygon class="cls-26" points="394.61 258.69 402.03 272.16 401.5 237.5 394.61 258.69"/><polygon class="cls-26" points="393.95 210.45 401.37 223.92 400.85 189.25 393.95 210.45"/><polygon class="cls-26" points="394.97 177.02 394.97 201.6 399.47 187.92 394.97 177.02"/><g class="cls-79"><polygon class="cls-26" points="394.72 168.2 394.41 159.41 400.52 168.67 394.72 168.2"/><polygon class="cls-26" points="393.68 168.22 385.71 157.52 393.25 158.91 393.68 168.22"/><polygon class="cls-26" points="383.14 153.8 372.15 139.01 381.76 141.65 383.14 153.8"/><polygon class="cls-26" points="367.93 133.01 351.6 110.97 364.7 116.04 367.93 133.01"/><polygon class="cls-26" points="343.34 100.06 318.48 66.58 336.56 76.03 343.34 100.06"/><polygon class="cls-26" points="384.89 155.88 392.86 157.51 383.26 144.03 384.89 155.88"/><polygon class="cls-26" points="370.29 136.84 380.55 139.86 366.84 120.53 370.29 136.84"/><polygon class="cls-26" points="347.67 106.74 361.31 112.35 340.66 83.15 347.67 106.74"/><polygon class="cls-26" points="308.76 56.23 330.13 68.09 300.09 21.54 308.76 56.23"/><polygon class="cls-26" points="288.64 26.18 304.36 47.23 298.54 22.16 288.64 26.18"/></g><polygon class="cls-34" points="399.12 97.23 393.09 139.67 394.02 141.76 401.21 98.39 399.12 97.23"/><path class="cls-24" d="M457.37,116.3c.05-3.43-1.83-6.21-4.18-6.21s-4.31,2.77-4.36,6.2,1.83,6.19,4.19,6.19S457.32,119.72,457.37,116.3Z" transform="translate(-50.68 -20.59)"/><path class="cls-59" d="M456.84,116c0-3.06-.92-5.54-2.12-5.55s-2.18,2.48-2.21,5.55.93,5.54,2.13,5.54S456.82,119.08,456.84,116Z" transform="translate(-50.68 -20.59)"/><polygon class="cls-34" points="402.6 103.03 407.01 157.76 404.92 158.92 401.44 103.95 402.6 103.03"/><path class="cls-69" d="M164.91,424.67S176,420,178.83,408.28c0,0,2.47,13.61-4,17S164.91,424.67,164.91,424.67Z" transform="translate(-50.68 -20.59)"/><path class="cls-69" d="M177,349.52s-3.71,8,8,16.08C185,365.6,177.9,355.71,177,349.52Z" transform="translate(-50.68 -20.59)"/><path class="cls-69" d="M136.46,366.53s6.49,9.28,15.15-5.87C151.61,360.66,146.05,369.31,136.46,366.53Z" transform="translate(-50.68 -20.59)"/><path class="cls-69" d="M169.24,374.57s9.59,10.83,1.24,35.88C170.48,410.45,172.64,382.62,169.24,374.57Z" transform="translate(-50.68 -20.59)"/><polygon class="cls-31" points="429.51 202.3 436.93 192.56 440.49 192.25 432.41 212.02 429.51 202.3"/><polygon class="cls-30" points="417.6 191.32 431.52 210.18 425.64 209.56 413.27 192.25 417.6 191.32"/><polygon class="cls-80" points="323.36 60.55 315.98 51.82 310.52 56.44 317.9 65.17 323.36 60.55"/><path class="cls-81" d="M163.78,474.52a8.91,8.91,0,0,0-9.81-9.27l-48.63,7.32-.13,8.85L156.1,483a7.69,7.69,0,0,0,7.63-7.35Z" transform="translate(-50.68 -20.59)"/><path class="cls-44" d="M158.64,475.44a6.23,6.23,0,0,0-2.32-5,8.11,8.11,0,0,0-5.8-1.76l-40,5.1-.07,6.43,41.93,1.38c3.37,0,6.12-2.34,6.25-5.31Z" transform="translate(-50.68 -20.59)"/><polygon class="cls-35" points="129.8 382.99 77.04 424.19 84.56 431.38 134 387.58 129.8 382.99"/><rect class="cls-35" x="141.19" y="438.38" width="26.51" height="4.02" transform="translate(-362.92 422.33) rotate(-70.98)"/><polygon class="cls-35" points="83.43 409.11 65.44 410.71 72.55 433.41 90.76 431.55 83.43 409.11"/><g class="cls-82"><polygon class="cls-83" points="128.64 387.44 127.09 385.11 86.06 417.16 85.61 415.78 81.37 414.65 79.72 410.95 82.24 409.21 68.58 410.43 87.97 419.98 128.64 387.44"/></g><rect class="cls-35" x="180.98" y="403.93" width="2.94" height="31.79" transform="translate(-295.8 562.71) rotate(-87.43)"/><polygon class="cls-38" points="159.55 407.33 132 380.71 127.84 386.75 155.98 410.6 159.55 407.33"/><polygon class="cls-35" points="155.98 410.6 157.69 409.04 130.3 383.18 127.88 386.69 128.64 387.44 155.98 410.6"/><path class="cls-84" d="M231.81,438.36c-6.52-9.54-15.25-12.61-27-10.44l12.86,30.18,5.49.95C228.87,452.06,230.82,447.1,231.81,438.36Z" transform="translate(-50.68 -20.59)"/><path class="cls-85" d="M228.26,434.37c-.26-.38-.54-.74-.81-1.11-5.91-5.47-13.32-7.06-22.6-5.34L217,456.84l.65,1.36C223.29,451.2,227.27,443.12,228.26,434.37Z" transform="translate(-50.68 -20.59)"/><polygon class="cls-86" points="99.68 441.91 98.33 453.94 83.16 462.92 45.42 460.42 44.75 445.36 99.68 441.91"/><path class="cls-87" d="M144.73,480.4a6,6,0,0,0-2.07-4.7,7.41,7.41,0,0,0-5.25-1.81l-50.57,2.36c-3.57.17-6.31,2.88-6.15,6.1l.1,2.19a5.76,5.76,0,0,0,5.71,5.17L135,491.88c5.1.23,9.4-3.3,9.61-7.89Z" transform="translate(-50.68 -20.59)"/><path class="cls-88" d="M96.08,436l-8.42,2.62a4.77,4.77,0,0,0-3.33,5.05L88,466.69l12.89,0Z" transform="translate(-50.68 -20.59)"/><rect class="cls-89" x="86.15" y="446.4" width="7.78" height="1.48" transform="translate(-64.73 -17.53) rotate(-1.81)"/><rect class="cls-89" x="86.79" y="449.96" width="7.78" height="1.47" transform="translate(-64.9 -17.49) rotate(-1.81)"/><rect class="cls-89" x="87.46" y="453.01" width="7.78" height="1.47" transform="translate(-65 -17.47) rotate(-1.81)"/><path class="cls-90" d="M97,442,96.08,436l-8.42,2.62a4.77,4.77,0,0,0-3.33,5.05l.08.51,11.77-.83Z" transform="translate(-50.68 -20.59)"/><polygon class="cls-35" points="38.53 436.58 42.36 450.89 84.48 448.93 103.13 442.42 105.01 427.81 44.23 432.99 38.53 436.58"/><path class="cls-91" d="M140.72,483.08a3.63,3.63,0,0,0-1.94-3.12A8.74,8.74,0,0,0,134,478.7l-46.27,1c-3.27.07-5.75,1.83-5.57,4l.12,1.44c.16,1.84,2.45,3.36,5.29,3.49l44.38,2c4.68.21,8.57-2.07,8.71-5.1Z" transform="translate(-50.68 -20.59)"/><g class="cls-92"><polygon class="cls-93" points="95.61 433.81 40.37 435.36 38.53 436.58 42.36 450.89 84.48 448.93 85.21 448.67 85.36 437.78 95.61 433.81"/></g><path class="cls-38" d="M89.51,430.08l4.56,25.81,28.43-.74,11.83-3.72L122,422.87C114.53,412.7,88.75,421.82,89.51,430.08Z" transform="translate(-50.68 -20.59)"/><path class="cls-86" d="M122.85,424.94l-.89-2.07c-7.43-10.17-33.21-1.05-32.45,7.21l.37,2.06L109.22,428Z" transform="translate(-50.68 -20.59)"/><path class="cls-94" d="M91.65,429l3.71,25.13L116,453l-9.11-25.85C99.78,423.59,96.16,424.84,91.65,429Z" transform="translate(-50.68 -20.59)"/><path class="cls-85" d="M227.45,433.26c-5.91-5.47-13.32-7.06-22.6-5.34l.3.71c8-1,14.6.8,19.94,5.73.27.37.54.73.81,1.11a45.35,45.35,0,0,1-8.85,21.5l.59,1.23c5.65-7,9.63-15.08,10.62-23.83C228,434,227.72,433.63,227.45,433.26Z" transform="translate(-50.68 -20.59)"/><path class="cls-84" d="M209.49,429.24a3.07,3.07,0,1,0-3.2,2.93A3.08,3.08,0,0,0,209.49,429.24Z" transform="translate(-50.68 -20.59)"/><path class="cls-35" d="M185.79,405.41a4,4,0,1,0-4.2,3.55A3.9,3.9,0,0,0,185.79,405.41Z" transform="translate(-50.68 -20.59)"/><path class="cls-84" d="M185.27,405.9a3.41,3.41,0,1,0-3.56,3.26A3.41,3.41,0,0,0,185.27,405.9Z" transform="translate(-50.68 -20.59)"/><path class="cls-86" d="M91,481.63c-4.32-1.83-7.41.65-4.67,4.84C89.85,488.05,92.89,485.26,91,481.63Z" transform="translate(-50.68 -20.59)"/><path class="cls-86" d="M136,482.53c-4.53-1.92-7.76.68-4.89,5.07C134.78,489.26,138,486.34,136,482.53Z" transform="translate(-50.68 -20.59)"/><path class="cls-90" d="M139.58,474.14a7.86,7.86,0,0,0-2.17-.25l-50.57,2.36a6.53,6.53,0,0,0-5.38,3.11l55-2.45Z" transform="translate(-50.68 -20.59)"/><polygon class="cls-86" points="47.01 465.46 44.5 458.5 50.32 454.34 70.3 453.35 67.07 458.11 67.94 465.6 47.01 465.46"/><polygon class="cls-95" points="44.52 464.14 42.01 457.18 47.83 453.01 67.38 452.68 64.58 456.79 65.45 464.27 44.52 464.14"/><path class="cls-89" d="M121,455.19l1.55,0,11.83-3.72L122,422.87a9,9,0,0,0-1.52-1.61L109,423.93Z" transform="translate(-50.68 -20.59)"/><g class="cls-96"><path class="cls-97" d="M107.57,418.59c-9.1,1.1-18.52,6.45-18.06,11.49l4.56,25.81,8.46-34.46Z" transform="translate(-50.68 -20.59)"/></g><polygon class="cls-35" points="85.36 437.78 41.6 437.7 85.57 442.09 85.36 437.78"/><path class="cls-84" d="M158.69,432.27a2.42,2.42,0,1,0-2.51,2.17A2.35,2.35,0,0,0,158.69,432.27Z" transform="translate(-50.68 -20.59)"/><polygon class="cls-94" points="61.46 408.12 71.75 406.16 81.21 428.61 71.17 431.11 61.46 408.12"/><path class="cls-98" d="M115.75,453l-2.89-8.17-6-17.53a8.2,8.2,0,0,0-3.27-1.41c-5.13-1.81-8.3-.43-12.1,3.07l3.7,25.14.3,0h0ZM93.49,429.88c3.35-3.08,6.23-4.48,10.37-3.54l1.7,6.77-11.14,3.13Z" transform="translate(-50.68 -20.59)"/><path class="cls-98" d="M122.43,426.75l-10.29,2,.7,1.54h0l9.06,21.45,9.07-2.27,1-.24Zm-8.7,1.73,7.81-1.46,1.35,3.78-7.57.26Z" transform="translate(-50.68 -20.59)"/><polygon class="cls-99" points="52.88 405.26 46.26 432.68 51.52 432.11 54.56 406.33 52.88 405.26"/><path class="cls-90" d="M134.72,483.6c-2.41-1-4.13.37-2.6,2.7C134.08,487.18,135.77,485.63,134.72,483.6Z" transform="translate(-50.68 -20.59)"/><path class="cls-90" d="M90,482.53c-2.41-1-4.13.36-2.6,2.69C89.39,486.1,91.08,484.55,90,482.53Z" transform="translate(-50.68 -20.59)"/><polygon class="cls-91" points="77.74 453.69 74.85 456.78 75.44 458.55 77.19 458.49 76.59 456.86 79.62 453.63 77.74 453.69"/><polygon class="cls-91" points="84.61 453.25 81.41 457.07 82 458.84 83.75 458.79 83.15 457.15 86.35 453.33 84.61 453.25"/><polygon class="cls-91" points="72.03 453.83 68.78 457.31 69.38 459.08 71.12 459.02 70.53 457.39 73.63 453.9 72.03 453.83"/><polygon class="cls-91" points="40.26 455.36 37.74 458.06 38.2 459.43 39.56 459.39 39.09 458.12 41.51 455.41 40.26 455.36"/><polygon class="cls-91" points="36.1 455.31 33.58 458 34.38 459.8 35.4 459.34 34.94 458.06 37.35 455.36 36.1 455.31"/><g class="cls-100"><polygon class="cls-101" points="85.36 437.78 95.61 433.81 39.49 436.94 85.36 437.78"/></g><polygon class="cls-84" points="154.6 411.49 165.66 438.76 164.83 443.96 167.26 443.46 169.47 439.13 171.25 439.82 170.46 444.01 172.71 443.31 175.78 433.17 168.79 436.29 155.98 410.6 154.6 411.49"/><path class="cls-35" d="M208.59,429.2a2.17,2.17,0,1,0-2.26,2.07A2.17,2.17,0,0,0,208.59,429.2Z" transform="translate(-50.68 -20.59)"/><path class="cls-35" d="M184.27,405.85a2.41,2.41,0,1,0-2.52,2.31A2.41,2.41,0,0,0,184.27,405.85Z" transform="translate(-50.68 -20.59)"/><path class="cls-35" d="M158.28,432.25A2,2,0,1,0,156.2,434,1.95,1.95,0,0,0,158.28,432.25Z" transform="translate(-50.68 -20.59)"/><polygon class="cls-85" points="154.44 410.48 165.31 437.54 165.22 444.18 167.31 438.03 154.44 410.48"/><polygon class="cls-102" points="87.31 436.96 85.67 437.7 85.36 448.85 86.72 448.01 87.31 436.96"/><path class="cls-103" d="M321.91,494c0-2.51-6.17-4.54-13.79-4.54s-13.78,2-13.78,4.54,6.17,4.53,13.78,4.53S321.91,496.53,321.91,494Z" transform="translate(-50.68 -20.59)"/><path class="cls-104" d="M303.78,439.9c2.17-2.74,3-5.81,1.75-6.8-.58-.43-4.13.46-6.3,3.19s-2.3,6-1.69,6.8C298.8,444.08,301.61,442.64,303.78,439.9Z" transform="translate(-50.68 -20.59)"/><rect class="cls-105" x="298.9" y="489.46" width="3.78" height="1.15" transform="translate(-248.37 756.04) rotate(-88.35)"/><rect class="cls-105" x="309.22" y="485.43" width="1.16" height="4.23" transform="translate(-73.78 -5.12) rotate(-2.76)"/><polygon class="cls-106" points="261.31 416.27 259.38 415.04 254.46 424.19 256.86 427.66 261.31 416.27"/><path class="cls-107" d="M308.55,486.75l2.08.13a241.61,241.61,0,0,0-1.2-25.52h0c-.19-9.53-1.36-14.74-3.82-17.52l-6.55,3a1.52,1.52,0,0,0-.86,1.67c.87,4.43,1.65,8.62,1.42,12.5h-.07l0,.55,0,.34h0c.38,7.66.41,16.68,0,27.13l2.14.12c1.1-12,1.61-19.61,2-24a3.09,3.09,0,0,1,2.34-.92A146.92,146.92,0,0,1,308.55,486.75Z" transform="translate(-50.68 -20.59)"/><path class="cls-108" d="M301.83,449.73c-.27-1.4-1.15-2.41-2-2.25s-1.27,1.41-1,2.81,1.14,2.41,2,2.26S302.09,451.13,301.83,449.73Z" transform="translate(-50.68 -20.59)"/><path class="cls-108" d="M302.48,451.66l4.11-1.77c-.09-2.48-.76-5.14-1.88-5.62l-4.29,2C302.29,446.41,302.43,449.86,302.48,451.66Z" transform="translate(-50.68 -20.59)"/><rect class="cls-109" x="299.75" y="486.95" width="1.94" height="2.94" transform="translate(-254.23 741.15) rotate(-86.84)"/><rect class="cls-109" x="308.7" y="484.7" width="1.94" height="2.94" transform="translate(-240.3 753.62) rotate(-87.48)"/><polygon class="cls-108" points="249.74 425.64 250.39 423.63 252.28 423.37 255.19 424.25 254.84 425.11 249.74 425.64"/><path class="cls-110" d="M302.9,442.73l-2.15,0,.42,3.34a2,2,0,0,0,2.43-.22Z" transform="translate(-50.68 -20.59)"/><polygon class="cls-110" points="252.91 425.24 253.8 427.29 251.3 425.87 252.91 425.24"/><polygon class="cls-111" points="250.23 423.63 251.97 425.42 251.43 426.75 249.88 425.08 250.23 423.63"/><rect class="cls-111" x="310.2" y="434.68" width="1.78" height="3.04" transform="translate(-268.51 501) rotate(-63.67)"/><path class="cls-103" d="M306,443.22l-.33.62h0l-1.24.57-1.22-.37-.29-1.3-2.15,0,.19,1.55,0,0-.34,1.45,0,0-.17.53-1.32.61a1.51,1.51,0,0,0-.86,1.67c.07.36.14.71.2,1.05a8.27,8.27,0,0,0,4.14-1.29C305,446.81,306.41,444.65,306,443.22Z" transform="translate(-50.68 -20.59)"/><path class="cls-112" d="M306.53,439.73c0-2-1.3-6.06-3.38-6.06s-5.14,3-5.14,5,2.69,4.73,4.77,4.73S306.56,442.38,306.53,439.73Z" transform="translate(-50.68 -20.59)"/><path class="cls-113" d="M301,442.73s-4.61.66-4.36-4c0,0,.76-4,4.51-4.92C301.13,433.83,297.63,439.32,301,442.73Z" transform="translate(-50.68 -20.59)"/><path class="cls-112" d="M300.13,440.29a.81.81,0,1,0-.66.9A.79.79,0,0,0,300.13,440.29Z" transform="translate(-50.68 -20.59)"/><path class="cls-113" d="M300.75,434.68a4.9,4.9,0,0,0,.38,5.59l-.72.09a4.81,4.81,0,0,1-2-2.43A4.68,4.68,0,0,1,300.75,434.68Z" transform="translate(-50.68 -20.59)"/><path class="cls-114" d="M306,439.65a.28.28,0,0,0-.16-.23.3.3,0,0,0-.29,0,6.35,6.35,0,0,1-2.15.54.54.54,0,0,0-.38.22.53.53,0,0,0-.05.44l.2.57a.25.25,0,0,0,.23.17,2.91,2.91,0,0,0,2.55-1.08.46.46,0,0,0,.09-.34Z" transform="translate(-50.68 -20.59)"/><path class="cls-115" d="M305.45,441.6c0-.1-.25-.13-.47-.06s-.37.23-.34.33.25.14.47.06S305.48,441.71,305.45,441.6Z" transform="translate(-50.68 -20.59)"/><path class="cls-116" d="M303,437.71c-.1-.34-.3-.58-.43-.53s-.16.35,0,.69.3.58.44.54S303.09,438.05,303,437.71Z" transform="translate(-50.68 -20.59)"/><path class="cls-116" d="M305.35,436.89c-.11-.34-.31-.58-.44-.53s-.15.35,0,.69.31.58.44.54S305.46,437.23,305.35,436.89Z" transform="translate(-50.68 -20.59)"/><path class="cls-117" d="M304.84,437.46a1,1,0,0,0-1-.3l-.21.06.9,1.72a.42.42,0,0,0,.54.19l.47-.22a.34.34,0,0,0,.19-.24.37.37,0,0,0-.07-.3Z" transform="translate(-50.68 -20.59)"/><path class="cls-112" d="M305.43,440l-.05-.29-.06,0a5.24,5.24,0,0,1-1.81.45.42.42,0,0,0-.27.14l.14.39Z" transform="translate(-50.68 -20.59)"/><path class="cls-112" d="M305.2,438.23c-.14-.19-.31-.29-.39-.23s0,.25.12.43.31.28.39.22S305.34,438.41,305.2,438.23Z" transform="translate(-50.68 -20.59)"/><path class="cls-113" d="M302.45,436.05l-.57.38a.74.74,0,0,0-.33.48.76.76,0,0,0,.11.57l0,.06,1.2-.79Z" transform="translate(-50.68 -20.59)"/><path class="cls-113" d="M304.16,435.34l.55-.09a.57.57,0,0,1,.47.15.81.81,0,0,1,.26.5V436l-1.16.19Z" transform="translate(-50.68 -20.59)"/><path class="cls-103" d="M305.81,436.38c-.59-1.46-1.5-2.71-2.66-2.71a2.28,2.28,0,0,0-.44.05c-1.67,1.33-4.8,4-6,6.22a3.23,3.23,0,0,0,3.09,2.79A9.54,9.54,0,0,1,305.81,436.38Z" transform="translate(-50.68 -20.59)"/><path class="cls-50" d="M297.51,443.05a13.47,13.47,0,0,1,3.07-6,14.34,14.34,0,0,1,4.89-4C298.51,430.61,293.36,436.19,297.51,443.05Z" transform="translate(-50.68 -20.59)"/><path class="cls-111" d="M310.32,446.42l-.93-2.22c-2.77,1.72-5.51,2.32-9.36,3.22a1.66,1.66,0,0,0-1.26,1.35,2.48,2.48,0,0,0,.16,1.38,1.3,1.3,0,0,0,1.57.74A38.6,38.6,0,0,0,310.32,446.42Z" transform="translate(-50.68 -20.59)"/><rect class="cls-118" x="308.83" y="443.91" width="1.78" height="3.04" transform="translate(-196.2 129.73) rotate(-22.23)"/><path class="cls-119" d="M300.2,463.12l-3,1.28,1.42,7.57c.8.43,1.25.13,1.85-.28Z" transform="translate(-50.68 -20.59)"/><path class="cls-51" d="M303.91,433.15a9,9,0,0,0-4.58-.08c-3.06,1.38-4.41,5-2.24,9.24a15.59,15.59,0,0,1,2.3-4.75A14.21,14.21,0,0,1,303.91,433.15Z" transform="translate(-50.68 -20.59)"/><path class="cls-51" d="M297.84,436.89c.43-.89,1.32-1.85.94-2s-1.52.43-2,1.32-.45,2-.07,2.23S297.4,437.78,297.84,436.89Z" transform="translate(-50.68 -20.59)"/><path class="cls-51" d="M300,434c-.06-.14-.31-.17-.55-.07s-.38.31-.32.45.31.18.55.07S300.09,434.15,300,434Z" transform="translate(-50.68 -20.59)"/><path class="cls-103" d="M299.78,440.44a.49.49,0,0,0-.5-.47.48.48,0,0,0-.5.47.49.49,0,0,0,.5.48A.5.5,0,0,0,299.78,440.44Z" transform="translate(-50.68 -20.59)"/><polygon class="cls-119" points="251.31 440.91 249.05 442.85 249.39 443.25 251.65 441.3 251.31 440.91"/><path class="cls-46" d="M301.1,460.36c-.33,0-.68.05-1,.06l-.19,1.66,1.23-.1Z" transform="translate(-50.68 -20.59)"/><path class="cls-46" d="M303.35,460a16.81,16.81,0,0,1-1.68.28v1.62c.65-.08,1.26-.18,1.84-.3Z" transform="translate(-50.68 -20.59)"/><path class="cls-46" d="M305.48,459.37a14.49,14.49,0,0,1-1.62.52l.16,1.61a16.62,16.62,0,0,0,1.66-.5Z" transform="translate(-50.68 -20.59)"/><path class="cls-46" d="M308.14,460c.33-.15.66-.32,1-.5l0-1.65-1.15.52Z" transform="translate(-50.68 -20.59)"/><path class="cls-46" d="M307.5,458.55c-.5.22-1,.42-1.42.6l.2,1.64q.68-.27,1.41-.6Z" transform="translate(-50.68 -20.59)"/><path class="cls-51" d="M297.17,464.4l1.42,7.57a1.39,1.39,0,0,0,.85.2l-.81-8.39Z" transform="translate(-50.68 -20.59)"/><path class="cls-120" d="M299.68,463.78l-2.13.89.33.77a2.67,2.67,0,0,0,1.95-.75Z" transform="translate(-50.68 -20.59)"/><rect class="cls-121" x="297.84" y="462.6" width="0.99" height="2.6" transform="translate(-121.58 33.59) rotate(-9.28)"/><rect class="cls-51" x="298.16" y="463.33" width="0.48" height="1.86" transform="matrix(0.98, -0.19, 0.19, 0.98, -133.06, 44.19)"/><polygon class="cls-121" points="248.17 440.99 246.08 441.25 246.33 442.59 248.34 441.99 248.17 440.99"/><path class="cls-121" d="M296.83,461.52l-1.36.08a3.54,3.54,0,0,0,.59,2.3l1.19-.39A2,2,0,0,0,296.83,461.52Z" transform="translate(-50.68 -20.59)"/><path class="cls-121" d="M300.53,462.71s-.4-1.34-2.41-.82l.14.66A2.73,2.73,0,0,1,300.53,462.71Z" transform="translate(-50.68 -20.59)"/><path class="cls-51" d="M298.89,461.77l0-.19-1.81.23a3.06,3.06,0,0,0-.21-.29l-1.36.08a3.2,3.2,0,0,0,.17,1.43l3.9-1.19A2.12,2.12,0,0,0,298.89,461.77Z" transform="translate(-50.68 -20.59)"/><polygon class="cls-51" points="245.95 441.88 244.96 442.11 245.04 442.47 246.04 442.24 245.95 441.88"/><polygon class="cls-51" points="248.2 441.32 246.45 441.73 246.53 442.1 248.19 441.58 248.2 441.32"/><path class="cls-119" d="M299.4,467.07a.5.5,0,0,0-.5-.5.5.5,0,0,0-.5.5.51.51,0,0,0,.5.5A.5.5,0,0,0,299.4,467.07Z" transform="translate(-50.68 -20.59)"/><polygon class="cls-112" points="265.8 404.8 264.67 404.61 259.76 414.73 261.39 415.5 265.8 404.8"/><path class="cls-112" d="M317.62,435.8c-2.27,4.32-4.52,6.14-7.48,8.38l.8,1.83a29.72,29.72,0,0,0,7.44-9.59Z" transform="translate(-50.68 -20.59)"/><path class="cls-112" d="M319.18,435.62c.34-.89.26-1.75-.18-1.92s-1.08.42-1.42,1.31-.26,1.75.19,1.92S318.84,436.51,319.18,435.62Z" transform="translate(-50.68 -20.59)"/><path class="cls-112" d="M318.05,433.82c-.14-1-.76-1.53-1-1.5s.16.61.3,1.59,0,2,.2,2S318.19,434.8,318.05,433.82Z" transform="translate(-50.68 -20.59)"/><path class="cls-112" d="M318.87,433.33c.24-.89.3-2.16.11-2.21s-.3.76-.53,1.65-.28,1.64-.09,1.69S318.63,434.21,318.87,433.33Z" transform="translate(-50.68 -20.59)"/><path class="cls-112" d="M319.63,433.39c.39-.83.67-2.07.49-2.15s-.42.7-.81,1.53-.56,1.57-.38,1.65S319.24,434.22,319.63,433.39Z" transform="translate(-50.68 -20.59)"/><path class="cls-112" d="M320,434.43c.63-.72,1.26-1.88,1.11-2s-.63.58-1.25,1.29-1,1.4-.85,1.54S319.33,435.14,320,434.43Z" transform="translate(-50.68 -20.59)"/><path class="cls-112" d="M316.86,425.11c.34-.89.26-1.75-.18-1.92s-1.08.42-1.42,1.31-.26,1.75.18,1.92S316.52,426,316.86,425.11Z" transform="translate(-50.68 -20.59)"/><path class="cls-112" d="M315.73,423.3c-.14-1-.75-1.52-1-1.49s.16.61.3,1.59,0,2,.2,2S315.87,424.29,315.73,423.3Z" transform="translate(-50.68 -20.59)"/><path class="cls-112" d="M316.55,422.82c.24-.89.3-2.16.11-2.21s-.3.77-.53,1.65-.28,1.64-.09,1.69S316.31,423.7,316.55,422.82Z" transform="translate(-50.68 -20.59)"/><path class="cls-112" d="M317.31,422.88c.39-.82.67-2.07.49-2.15s-.42.7-.81,1.53-.56,1.57-.38,1.65S316.92,423.71,317.31,422.88Z" transform="translate(-50.68 -20.59)"/><path class="cls-112" d="M317.64,423.92c.62-.72,1.25-1.88,1.1-2s-.63.58-1.25,1.29-1,1.4-.85,1.54S317,424.63,317.64,423.92Z" transform="translate(-50.68 -20.59)"/><path class="cls-105" d="M302,495.88c0-1-.32-4.64-1.13-4.64s-1.8,3.64-1.8,4.64.61.85,1.42.85S302,496.87,302,495.88Z" transform="translate(-50.68 -20.59)"/><path class="cls-122" d="M302,495.4c0-1-.32-4.64-1.13-4.64s-1.8,3.65-1.8,4.64.61.85,1.42.85S302,496.4,302,495.4Z" transform="translate(-50.68 -20.59)"/><path class="cls-51" d="M300.81,494.6c.1-.57-.11-1.09-.47-1.16s-.74.36-.84.93.11,1.1.47,1.16S300.71,495.18,300.81,494.6Z" transform="translate(-50.68 -20.59)"/><rect class="cls-105" x="249.57" y="469.98" width="0.95" height="1.52"/><rect class="cls-105" x="249.25" y="471.88" width="1.39" height="0.44"/><path class="cls-105" d="M312.46,490c-1.36-.17-3.1-1.36-3.2-.53a.09.09,0,0,0,0,.05,4.11,4.11,0,0,0-.26,1.62,1,1,0,0,0,1.07.82,1.25,1.25,0,0,0,.63-.16l.18,0c1.37.18,4.76.55,4.87-.28S315.56,489.72,312.46,490Z" transform="translate(-50.68 -20.59)"/><path class="cls-122" d="M312.46,489.53c-1.36-.17-3.1-1.36-3.2-.53a.07.07,0,0,0,0,.05,4.11,4.11,0,0,0-.26,1.62,1,1,0,0,0,1.07.82,1.25,1.25,0,0,0,.63-.16l.18,0c1.37.17,4.76.55,4.87-.28S315.56,489.28,312.46,489.53Z" transform="translate(-50.68 -20.59)"/><polygon class="cls-105" points="259.63 468 258.9 467.96 260.29 468.97 260.58 468.57 259.63 468"/><path class="cls-51" d="M315.05,490.54c0-.21-.47-.4-1.08-.44s-1.11.11-1.13.31.47.41,1.08.45S315,490.75,315.05,490.54Z" transform="translate(-50.68 -20.59)"/><rect class="cls-105" x="311.3" y="489.5" width="0.82" height="0.44" transform="translate(-308.57 581.14) rotate(-68.65)"/><path class="cls-36" d="M544.55,477.57c-.39-15.1-20.94-42.78-41.58-42.25s-29.55,27.48-29.16,42.59C490.75,479.25,543.72,482.9,544.55,477.57Z" transform="translate(-50.68 -20.59)"/><g class="cls-123"><path class="cls-124" d="M523.13,450.74a53.7,53.7,0,0,0,2.59-5.71c-6.79-5.88-14.76-9.91-22.75-9.71-19.83.52-28.84,25.43-29.16,40.78C491.24,481.71,512.41,471.23,523.13,450.74Z" transform="translate(-50.68 -20.59)"/></g></g></g></svg>