<?xml version="1.0" encoding="utf-8"?>
<!-- Generator: Adobe Illustrator 23.0.0, SVG Export Plug-In . SVG Version: 6.00 Build 0)  -->
<svg version="1.1" id="Layer_1" xmlns="http://www.w3.org/2000/svg" xmlns:xlink="http://www.w3.org/1999/xlink" x="0px" y="0px"
	 viewBox="0 0 300 300" style="enable-background:new 0 0 300 300;" xml:space="preserve">
<style type="text/css">
	.st0{fill:#565656;}
</style>
<path class="st0" d="M289.13,244.9c-6.71-29.87-24.22-57-49.33-76.38c-15.9-12.28-34.43-21.08-54.12-25.93
	c20.66-12.24,34.55-34.75,34.55-60.46c0-38.73-31.51-70.23-70.23-70.23c-38.73,0-70.23,31.51-70.23,70.23
	c0,25.7,13.89,48.22,34.55,60.46c-19.69,4.84-38.22,13.65-54.12,25.93c-25.1,19.39-42.62,46.51-49.33,76.38
	c-2.38,10.58,0.14,21.5,6.91,29.96c6.74,8.42,16.79,13.25,27.58,13.25h209.29c10.79,0,20.84-4.83,27.58-13.25
	C288.99,266.4,291.5,255.48,289.13,244.9z M150,41.9c22.18,0,40.23,18.05,40.23,40.23s-18.05,40.23-40.23,40.23
	c-22.18,0-40.23-18.05-40.23-40.23S127.82,41.9,150,41.9z M258.8,256.11c-0.6,0.74-1.93,1.99-4.15,1.99H45.36
	c-2.23,0-3.56-1.25-4.16-2c-0.61-0.76-1.56-2.38-1.06-4.64c10.83-48.22,57.03-83.21,109.86-83.21c52.83,0,99.03,35,109.86,83.21
	C260.36,253.72,259.41,255.34,258.8,256.11z"/>
</svg>
