<?xml version="1.0" standalone="no"?>
<!DOCTYPE svg PUBLIC "-//W3C//DTD SVG 20010904//EN"
 "http://www.w3.org/TR/2001/REC-SVG-20010904/DTD/svg10.dtd">
<svg version="1.0" xmlns="http://www.w3.org/2000/svg"
 width="512.000000pt" height="512.000000pt" viewBox="0 0 512.000000 512.000000"
 preserveAspectRatio="xMidYMid meet">

<g transform="translate(0.000000,512.000000) scale(0.100000,-0.100000)"
fill="#000000" stroke="none">
<path d="M4180 4925 c-121 -23 -230 -83 -326 -179 -92 -93 -143 -184 -171
-303 l-17 -73 -337 0 -338 0 -20 -26 c-21 -27 -21 -32 -21 -870 l0 -844 -285
0 -285 0 0 648 c0 639 0 649 -20 670 l-21 22 -832 0 -832 0 -247 -248 -248
-247 0 -1136 c0 -1134 0 -1136 21 -1163 l20 -26 1059 0 1059 0 21 22 c20 21
20 31 20 670 l0 648 285 0 285 0 0 -844 c0 -838 0 -843 21 -870 l20 -26 338 0
337 0 17 -73 c28 -119 79 -210 171 -303 65 -66 97 -89 166 -122 163 -78 319
-90 480 -36 196 66 337 208 406 409 23 68 27 97 28 190 1 186 -53 315 -189
451 -87 88 -177 140 -290 169 -76 19 -222 19 -304 0 -228 -54 -412 -240 -468
-476 l-17 -69 -288 0 -288 0 0 800 0 800 288 0 288 0 17 -72 c30 -122 81 -212
172 -303 128 -129 271 -188 450 -188 444 1 751 451 588 862 -97 246 -327 403
-588 404 -179 0 -324 -60 -450 -187 -93 -94 -143 -182 -171 -300 l-18 -76
-288 0 -288 0 0 800 0 800 289 0 289 0 15 -69 c53 -231 240 -422 468 -476 82
-19 228 -19 304 0 215 55 395 231 461 450 13 43 18 92 18 170 -1 93 -5 122
-28 190 -107 311 -409 490 -726 430z m221 -139 c255 -54 430 -302 391 -553
-38 -246 -240 -422 -482 -423 -144 0 -252 42 -351 137 -100 95 -149 214 -149
363 1 186 105 351 275 434 109 54 200 66 316 42z m-2161 -2226 l0 -1270 -960
0 -960 0 0 1045 0 1045 203 0 c167 0 206 3 225 16 22 15 22 19 22 225 l0 209
735 0 735 0 0 -1270z m-1610 1060 l0 -100 -102 0 -103 0 100 100 c55 55 101
100 102 100 2 0 3 -45 3 -100z m3828 -592 c224 -72 371 -309 333 -540 -40
-248 -242 -420 -491 -420 -148 0 -260 50 -362 161 -97 105 -134 212 -126 367
4 80 10 103 41 168 112 235 359 343 605 264z m2 -1741 c179 -64 302 -212 331
-398 50 -321 -239 -610 -560 -560 -341 53 -522 413 -364 726 32 61 133 164
193 195 126 65 280 79 400 37z"/>
<path d="M980 3500 c-11 -11 -20 -33 -20 -50 0 -17 9 -39 20 -50 19 -19 33
-20 299 -20 256 0 281 2 302 18 15 13 22 30 22 52 0 22 -7 39 -22 52 -21 16
-46 18 -302 18 -266 0 -280 -1 -299 -20z"/>
<path d="M655 3050 c-24 -26 -22 -67 4 -93 21 -22 23 -22 599 -25 400 -2 589
0 615 8 57 17 72 74 31 115 -13 13 -95 15 -623 15 -592 0 -608 -1 -626 -20z"/>
<path d="M662 2614 c-16 -11 -22 -25 -22 -54 0 -70 2 -70 355 -70 l312 0 21
23 c28 30 28 68 -1 95 -23 22 -29 22 -333 22 -264 0 -313 -2 -332 -16z"/>
<path d="M685 2180 c-48 -19 -63 -74 -30 -110 18 -19 34 -20 624 -20 333 0
611 4 617 8 21 14 34 52 28 78 -14 53 -22 54 -646 53 -315 0 -582 -4 -593 -9z"/>
<path d="M662 1724 c-16 -11 -22 -25 -22 -54 0 -70 2 -70 351 -70 295 0 307 1
333 21 32 25 35 70 6 99 -19 19 -33 20 -333 20 -267 0 -316 -2 -335 -16z"/>
</g>
</svg>
