<?xml version="1.0" encoding="utf-8"?>
<!-- Generator: Adobe Illustrator 23.0.0, SVG Export Plug-In . SVG Version: 6.00 Build 0)  -->
<svg version="1.1" id="Layer_1" xmlns="http://www.w3.org/2000/svg" xmlns:xlink="http://www.w3.org/1999/xlink" x="0px" y="0px"
	 viewBox="0 0 300 300" style="enable-background:new 0 0 300 300;" xml:space="preserve">
<style type="text/css">
	.st0{fill:#565656;}
</style>
<g>
	<path class="st0" d="M244.36,287.73H55.64c-25.17,0-45.64-20.48-45.64-45.64V131.81c0-14.29,6.83-27.94,18.26-36.51l94.36-70.77
		c16.12-12.09,38.65-12.09,54.77,0l94.36,70.77c11.43,8.57,18.26,22.22,18.26,36.51V242.1C290,267.26,269.52,287.73,244.36,287.73z
		 M150,45.42c-3.31,0-6.62,1.04-9.39,3.11L46.25,119.3c-3.92,2.94-6.26,7.62-6.26,12.51V242.1c0,8.63,7.02,15.64,15.64,15.64h188.71
		c8.63,0,15.64-7.02,15.64-15.64V131.81c0-4.9-2.34-9.58-6.26-12.51l-94.36-70.77C156.62,46.45,153.31,45.42,150,45.42z"/>
</g>
</svg>
