<?xml version="1.0" encoding="utf-8"?>
<!-- Generator: Adobe Illustrator 23.0.0, SVG Export Plug-In . SVG Version: 6.00 Build 0)  -->
<svg version="1.1" id="Layer_1" xmlns="http://www.w3.org/2000/svg" xmlns:xlink="http://www.w3.org/1999/xlink" x="0px" y="0px"
	 viewBox="0 0 300 300" style="enable-background:new 0 0 300 300;" xml:space="preserve">
<style type="text/css">
	.st0{fill:#565656;}
	.st1{opacity:0.5;enable-background:new    ;}
	.st2{fill:#777777;}
</style>
<path class="st0" d="M241.79,61.69v-19.3c0-0.94-0.09-1.87-0.29-2.79c-5.26-23.15-25.71-35.6-45.79-32.73L56.83,26.72
	c-13.72,1.96-24.11,13.75-24.39,27.56h-0.01v182.21c0,29.55,24.04,53.59,53.59,53.59h128.62c29.55,0,53.59-24.04,53.59-53.59V107.86
	C268.22,88.22,257.59,71.02,241.79,61.69z M199.85,35.88c5.62-0.8,11.35,2.77,12.64,9.36v8.75H73.09L199.85,35.88z M238.22,236.49
	c0,13-10.58,23.59-23.59,23.59H86.01c-13.01,0-23.59-10.58-23.59-23.59V84.28h152.21c13,0,23.59,10.58,23.59,23.59V236.49z"/>
<g class="st1">
	<path class="st2" d="M201.77,158.45H98.88c-6.63,0-12-5.37-12-12s5.37-12,12-12h102.9c6.63,0,12,5.37,12,12
		S208.4,158.45,201.77,158.45z"/>
</g>
<g class="st1">
	<path class="st2" d="M170.26,202.75H97.63c-6.63,0-12-5.37-12-12s5.37-12,12-12h72.64c6.63,0,12,5.37,12,12
		S176.89,202.75,170.26,202.75z"/>
</g>
</svg>
