<?xml version="1.0" encoding="utf-8"?>
<!-- Generator: Adobe Illustrator 23.0.0, SVG Export Plug-In . SVG Version: 6.00 Build 0)  -->
<svg version="1.1" id="Layer_1" xmlns="http://www.w3.org/2000/svg" xmlns:xlink="http://www.w3.org/1999/xlink" x="0px" y="0px"
	 viewBox="0 0 300 300" style="enable-background:new 0 0 300 300;" xml:space="preserve">
<style type="text/css">
	.st0{fill:#565656;}
</style>
<path class="st0" d="M229,244.68V255c0,2.76-2.24,5-5,5H64c-2.76,0-5-2.24-5-5V45c0-2.76,2.24-5,5-5h160c2.76,0,5,2.24,5,5v10.32
	c0,2.76,2.24,5,5,5h20c2.76,0,5-2.24,5-5V45c0-19.33-15.67-35-35-35H64c-19.33,0-35,15.67-35,35v210c0,19.33,15.67,35,35,35h160
	c19.33,0,35-15.67,35-35v-10.32c0-2.76-2.24-5-5-5h-20C231.24,239.68,229,241.92,229,244.68z"/>
<path class="st0" d="M184.05,234.26l71.58-43c2-1.27,3.27-3.45,3.27-5.9v-78.83c0-2.78-2.09-4.72-4.35-5.81l-1.81-0.91
	c-0.18-0.09-0.45-0.09-0.64-0.09h0.54l-69.58-34.74c-1.91-0.91-4.17-0.91-6.08,0l-69.49,34.74c-5.08,1.95-6.35,6.3-6.35,8.75v76.88
	c0,2.45,1.27,4.63,3.36,5.9c0,0,70.93,42.56,71.29,42.65C175.79,233.92,180.02,237.05,184.05,234.26L184.05,234.26z M173.26,216.85
	l-58.51-35.29v-63.41l58.51,33.11V216.85z M180.06,139.56L123,107.17l57.06-28.49l56.97,28.49L180.06,139.56L180.06,139.56z
	 M245.29,181.56l-58.42,35.2v-65.5l58.42-33.11V181.56z"/>
</svg>
