<?xml version="1.0" encoding="utf-8"?>
<!-- Generator: Adobe Illustrator 23.0.0, SVG Export Plug-In . SVG Version: 6.00 Build 0)  -->
<svg version="1.1" id="Layer_1" xmlns="http://www.w3.org/2000/svg" xmlns:xlink="http://www.w3.org/1999/xlink" x="0px" y="0px"
	 viewBox="0 0 300 300" style="enable-background:new 0 0 300 300;" xml:space="preserve">
<style type="text/css">
	.st0{fill:#565656;}
</style>
<g>
	<path class="st0" d="M160.83,72.53h-19.46v17.91c-7.9,2.51-13.98,6.61-18.23,12.3c-4.25,5.7-6.38,12.61-6.38,20.73
		c0,7.25,2.1,13.49,6.3,18.72c4.2,5.23,10.25,9.08,18.15,11.53c1.03,0.33,2.48,0.79,4.33,1.39c12.15,3.65,18.23,9.19,18.23,16.6
		c0,4.42-1.27,8-3.8,10.75c-2.53,2.75-5.9,4.13-10.1,4.13c-4.63,0-8.19-1.34-10.67-4.01c-2.48-2.67-3.78-6.54-3.88-11.61h-22.08
		c0.05,9.43,2.51,17.25,7.36,23.47c4.85,6.21,11.77,10.41,20.77,12.59v20.44h19.46v-21.5c8.39-2.62,14.81-7.04,19.25-13.29
		c4.44-6.24,6.66-14.02,6.66-23.34c0-7.58-2.07-14.12-6.21-19.62c-4.14-5.5-10.06-9.57-17.74-12.18c-2.18-0.76-5.37-1.66-9.57-2.7
		c-10.68-2.67-16.03-6.87-16.03-12.59c0-3.65,1.28-6.65,3.84-8.99c2.56-2.34,5.86-3.52,9.89-3.52c3.54,0,6.5,1.08,8.87,3.23
		c2.37,2.15,3.58,4.92,3.64,8.3h20.6c-0.27-7.79-2.43-14.38-6.46-19.75c-4.04-5.37-9.62-9.01-16.76-10.91V72.53z"/>
	<path class="st0" d="M202.57,43.18l34.05-0.01l-29.58,29.58c-5.86,5.86-5.86,15.36,0,21.21c2.93,2.93,6.77,4.39,10.61,4.39
		s7.68-1.46,10.61-4.39l29.58-29.58l-0.01,34.05c0,6.15,7.44,9.23,11.79,4.88l16.72-16.72c1.29-1.29,2.02-3.05,2.02-4.88l0-62.16
		c0-3.81-3.09-6.9-6.9-6.9l-62.16,0c-1.83,0-3.59,0.73-4.88,2.02l-16.72,16.72C193.33,35.74,196.42,43.18,202.57,43.18z"/>
	<path class="st0" d="M289.65,140.02c-0.61-8.55-11-12.41-17.05-6.35l-12.66,12.66c0.04,1.22,0.07,2.45,0.07,3.68
		c0,62.1-51.72,112.34-114.35,109.92C88.56,257.7,42.3,211.44,40.08,154.35C37.66,91.72,87.9,40,150,40c1.88,0,3.75,0.05,5.6,0.14
		l12.59-12.59c6.02-6.02,2.24-16.32-6.25-17.05c-16.49-1.4-33.78,0.07-51.39,4.95C63.5,28.49,26.84,65.93,14.71,113.23
		C-9.08,206,60.52,289.63,149.41,290c74.65,0.31,136.88-58.68,140.43-133.25C290.11,151.09,290.04,145.51,289.65,140.02z"/>
</g>
</svg>
