<?xml version="1.0" encoding="utf-8"?>
<!-- Generator: Adobe Illustrator 23.0.0, SVG Export Plug-In . SVG Version: 6.00 Build 0)  -->
<svg version="1.1" id="Layer_1" xmlns="http://www.w3.org/2000/svg" xmlns:xlink="http://www.w3.org/1999/xlink" x="0px" y="0px"
	 viewBox="0 0 300 300" style="enable-background:new 0 0 300 300;" xml:space="preserve">
<style type="text/css">
	.st0{fill:#565656;}
</style>
<g>
	<path class="st0" d="M230,10H70c-19.3,0-35,15.7-35,35v174.35v16.49l4.23,4.4l-0.04,0.04l39.18,40.75
		c5.63,5.85,13.51,9.21,21.63,9.21c8.12,0,16-3.36,21.63-9.21l28.37-29.51l28.38,29.51c5.63,5.85,13.51,9.21,21.62,9.21
		s16-3.36,21.63-9.21l39.19-40.76l-0.04-0.04l4.23-4.4v-16.49V45C265,25.7,249.3,10,230,10z M235,218.9v4.94L200.23,260h-0.46
		l-49.77-51.76L100.23,260h-0.46L65,223.84v-4.94V45c0-2.76,2.24-5,5-5h160c2.76,0,5,2.24,5,5V218.9z"/>
	<path class="st0" d="M95.93,97.14h67c8.28,0,15-6.72,15-15s-6.72-15-15-15h-67c-8.28,0-15,6.72-15,15S87.64,97.14,95.93,97.14z"/>
	<path class="st0" d="M201.57,129.74H95.93c-8.28,0-15,6.72-15,15s6.72,15,15,15h105.64c8.28,0,15-6.72,15-15
		S209.86,129.74,201.57,129.74z"/>
</g>
</svg>
