<svg id="Layer_1" data-name="Layer 1" xmlns="http://www.w3.org/2000/svg" viewBox="0 0 760.57 862.14"><defs><style>.cls-1{fill:#3185fc;}.cls-2{fill:#2ca589;}.cls-3{fill:#1e997b;}.cls-4{fill:#f7ad1a;}.cls-5{fill:#ffce03;}</style></defs><title>projectBook</title><rect class="cls-1" x="70.86" y="46.29" width="689.71" height="815.86" rx="50"/><path class="cls-2" d="M1059.43,773V368.93a50,50,0,0,0-50-50H419.71a50,50,0,0,0-50,50V1101L703.32,684a50,50,0,0,1,70.28-7.81c.49.39.95.79,1.42,1.19l84.19-104.61Z" transform="translate(-369.71 -318.93)"/><path class="cls-3" d="M1059.43,1131.07V773L859.21,572.79,775,677.4a50,50,0,0,1,6.39,69.09L433.75,1181.07h575.68A50,50,0,0,0,1059.43,1131.07Z" transform="translate(-369.71 -318.93)"/><path class="cls-4" d="M773.6,676.21A50,50,0,0,0,703.32,684L369.71,1101v30a50,50,0,0,0,50,50h14L781.41,746.49A50,50,0,0,0,773.6,676.21Z" transform="translate(-369.71 -318.93)"/><path class="cls-5" d="M839.91,789.84l28.87-189.67a31,31,0,0,0-41.89-33.51l-178.7,69.8a31,31,0,0,0-8.08,53L789.94,809.36A31,31,0,0,0,839.91,789.84Z" transform="translate(-369.71 -318.93)"/></svg>