<?xml version="1.0" encoding="utf-8"?>
<!-- Generator: Adobe Illustrator 23.0.0, SVG Export Plug-In . SVG Version: 6.00 Build 0)  -->
<svg version="1.1" id="Layer_1" xmlns="http://www.w3.org/2000/svg" xmlns:xlink="http://www.w3.org/1999/xlink" x="0px" y="0px"
	 viewBox="0 0 300 300" style="enable-background:new 0 0 300 300;" xml:space="preserve">
<style type="text/css">
	.st0{fill:none;}
	.st1{fill:#565656;}
</style>
<g>
	<path class="st0" d="M215.07,86.43V62.21c0-3.58-2.92-6.5-6.5-6.5H46.5c-3.58,0-6.5,2.92-6.5,6.5v24.81
		c2.11-0.38,4.28-0.59,6.5-0.59H215.07z"/>
	<path class="st1" d="M253.5,86.43h-8.43V62.21c0-20.13-16.37-36.5-36.5-36.5H46.5c-20.13,0-36.5,16.37-36.5,36.5v60.71v60.57v70
		c0,20.13,16.37,36.5,36.5,36.5h207c20.13,0,36.5-16.37,36.5-36.5V122.93C290,102.8,273.63,86.43,253.5,86.43z M40,62.21
		c0-3.58,2.92-6.5,6.5-6.5h162.07c3.58,0,6.5,2.92,6.5,6.5v24.21H46.5c-2.22,0-4.39,0.21-6.5,0.59V62.21z M260,253.5
		c0,3.58-2.92,6.5-6.5,6.5h-207c-3.58,0-6.5-2.92-6.5-6.5v-34.09V183.5v-60.57c0-3.58,2.92-6.5,6.5-6.5h168.57h30h8.43
		c3.58,0,6.5,2.92,6.5,6.5V253.5z"/>
</g>
<g>
	<path class="st1" d="M225.5,171.71h-88.07c-8.28,0-15-6.72-15-15s6.72-15,15-15h88.07c8.28,0,15,6.72,15,15
		S233.78,171.71,225.5,171.71z"/>
</g>
<g>
	<path class="st1" d="M225.5,216.71h-120c-8.28,0-15-6.72-15-15s6.72-15,15-15h120c8.28,0,15,6.72,15,15S233.78,216.71,225.5,216.71
		z"/>
</g>
</svg>
