<?xml version="1.0" encoding="utf-8"?>
<!-- Generator: Adobe Illustrator 23.0.0, SVG Export Plug-In . SVG Version: 6.00 Build 0)  -->
<svg version="1.1" id="Layer_1" xmlns="http://www.w3.org/2000/svg" xmlns:xlink="http://www.w3.org/1999/xlink" x="0px" y="0px"
	 viewBox="0 0 300 300" style="enable-background:new 0 0 300 300;" xml:space="preserve">
<style type="text/css">
	.st0{fill:none;}
	.st1{fill:#565656;}
</style>
<g>
	<path class="st0" d="M179.04,43.21c0-2.76-2.24-5-5-5h-48.07c-2.76,0-5,2.24-5,5v31.64h58.07V43.21z"/>
	<path class="st1" d="M284.38,247.41L253.1,102.6c-3.47-16.08-17.93-27.74-34.37-27.74h-9.69V43.21c0-19.3-15.7-35-35-35h-48.07
		c-19.3,0-35,15.7-35,35v31.64H76.71c-16.89,0-31.42,12.04-34.56,28.64L14.78,248.3c-1.95,10.32,0.77,20.88,7.48,28.97
		S38.83,290,49.34,290h200.67c10.68,0,20.66-4.77,27.37-13.08S286.64,257.85,284.38,247.41z M120.96,43.21c0-2.76,2.24-5,5-5h48.07
		c2.76,0,5,2.24,5,5v31.64h-58.07V43.21z M254.03,258.08c-0.58,0.72-1.87,1.92-4.02,1.92H49.34c-2.11,0-3.4-1.17-3.98-1.87
		c-0.58-0.7-1.49-2.18-1.1-4.26l27.38-144.81c0.46-2.44,2.6-4.21,5.08-4.21h14.25h30h58.07h30h9.69c2.42,0,4.54,1.71,5.05,4.08
		l31.29,144.81C255.51,255.84,254.61,257.36,254.03,258.08z"/>
</g>
</svg>
