<?xml version="1.0" encoding="utf-8"?>
<!-- Generator: Adobe Illustrator 23.0.0, SVG Export Plug-In . SVG Version: 6.00 Build 0)  -->
<svg version="1.1" id="Layer_1" xmlns="http://www.w3.org/2000/svg" xmlns:xlink="http://www.w3.org/1999/xlink" x="0px" y="0px"
	 viewBox="0 0 300 300" style="enable-background:new 0 0 300 300;" xml:space="preserve">
<style type="text/css">
	.st0{fill:#565656;}
	.st1{fill:none;stroke:#565656;stroke-width:30;stroke-linecap:round;stroke-miterlimit:10;}
</style>
<g>
	<path class="st0" d="M205.71,236.79c-5.96,0-11.86-2.55-15.96-7.45l-22.44-26.82c-5.32-6.35-4.48-15.81,1.88-21.13
		s15.81-4.48,21.13,1.88l16.84,20.13l63.02-47.2c6.63-4.97,16.03-3.62,21,3.01c4.97,6.63,3.62,16.03-3.01,21l-70,52.43
		C214.44,235.44,210.06,236.79,205.71,236.79z"/>
</g>
<path class="st0" d="M222.71,241.51v5.31c0,7.86-6.39,14.25-14.25,14.25H64.25c-7.86,0-14.25-6.39-14.25-14.25V55.32
	c0-7.86,6.39-14.25,14.25-14.25h144.21c7.86,0,14.25,6.39,14.25,14.25v124.24l30-22.47V55.32c0-24.4-19.85-44.25-44.25-44.25H64.25
	C39.85,11.07,20,30.92,20,55.32v191.5c0,24.4,19.85,44.25,44.25,44.25h144.21c24.4,0,44.25-19.85,44.25-44.25v-27.78L222.71,241.51z
	"/>
<line class="st1" x1="81.5" y1="83.21" x2="170.86" y2="83.21"/>
<line class="st1" x1="81.5" y1="134.71" x2="195.93" y2="134.71"/>
</svg>
