<?xml version="1.0" encoding="utf-8"?>
<!-- Generator: Adobe Illustrator 23.0.0, SVG Export Plug-In . SVG Version: 6.00 Build 0)  -->
<svg version="1.1" id="Layer_1" xmlns="http://www.w3.org/2000/svg" xmlns:xlink="http://www.w3.org/1999/xlink" x="0px" y="0px"
	 viewBox="0 0 280 275.1" style="enable-background:new 0 0 280 275.1;" xml:space="preserve">
<style type="text/css">
	.st0{fill:#565656;}
</style>
<title>report</title>
<path class="st0" d="M265,245.1H15c-8.3,0-15,6.7-15,15c0,8.3,6.7,15,15,15h250c8.3,0,15-6.7,15-15C280,251.9,273.3,245.1,265,245.1
	z"/>
<path class="st0" d="M35,230c8.3,0,15-6.7,15-15V15c0-8.3-6.7-15-15-15S20,6.7,20,15v200C20,223.3,26.7,230,35,230z"/>
<path class="st0" d="M211,225c8.3,0,15-6.7,15-15l0,0V110c0-8.3-6.7-15-15-15s-15,6.7-15,15v100C196,218.3,202.7,225,211,225
	L211,225z"/>
<path class="st0" d="M123,230c8.3,0,15-6.7,15-15V65c0-8.3-6.7-15-15-15s-15,6.7-15,15v150C108,223.3,114.7,230,123,230z"/>
</svg>
