<svg id="Layer_1" data-name="Layer 1" xmlns="http://www.w3.org/2000/svg" viewBox="0 0 598.66 130"><defs><style>.cls-1{fill:#ffce00;}.cls-2{fill:#01b693;}.cls-3{fill:#00e0b5;}.cls-4{fill:#001635;}</style></defs><title>Someekoron_Logo</title><polygon class="cls-1" points="0 97.5 0 97.5 0 97.5 0 97.5"/><polygon class="cls-2" points="82.11 14.9 82.1 14.9 82.1 14.9 82.11 14.9"/><polygon class="cls-2" points="56.29 0 56.29 0 56.3 0 56.29 0"/><path class="cls-1" d="M280.57,449.9h0L254.76,435h0v29.81L224.27,482.4v24.29h50.81a10.63,10.63,0,0,1,10.63,10.63h0v29.81h0l25.34-14.63h0v-65Z" transform="translate(-198.46 -435)"/><path class="cls-2" d="M285.71,517.32a10.63,10.63,0,0,0-10.63-10.63H224.27V482.4l30.49-17.59V435l-30.49,17.6-25.8,14.9v54.37a10.62,10.62,0,0,0,10.62,10.63h50.33l26.29-15.18Z" transform="translate(-198.46 -435)"/><polygon class="cls-3" points="87.25 82.32 60.96 97.5 30.48 115.1 56.29 130 87.25 112.13 87.25 97.5 87.25 82.32"/><path class="cls-4" d="M373.89,502.56a24,24,0,0,0-7.48-2.48l-6.56-1.2a16.66,16.66,0,0,1-7.16-2.68q-2.52-1.87-2.52-6.44a8.81,8.81,0,0,1,2-6,11.13,11.13,0,0,1,5.4-3.32,27.17,27.17,0,0,1,7.84-1,27.77,27.77,0,0,1,12.48,2.72h.64v-8.48a24.61,24.61,0,0,0-5.68-1.68,37.71,37.71,0,0,0-7-.64,38.38,38.38,0,0,0-13.28,2,16.57,16.57,0,0,0-11.52,16.76,16.34,16.34,0,0,0,2,8.52,14.68,14.68,0,0,0,5.56,5.36,24,24,0,0,0,8,2.68l6.64,1.2a15.86,15.86,0,0,1,6.32,2.32c1.38,1,2.08,2.69,2.08,5a6,6,0,0,1-1.6,4.48,9.4,9.4,0,0,1-4.48,2.32,27.56,27.56,0,0,1-6.64.72,40.26,40.26,0,0,1-6.36-.48,38.66,38.66,0,0,1-5.52-1.28,25.58,25.58,0,0,1-4.44-1.84h-.72v8.72a42.36,42.36,0,0,0,4.76,1.48A50.63,50.63,0,0,0,359,530.88a37.59,37.59,0,0,0,8.84-1,21.15,21.15,0,0,0,6.88-2.92,13.76,13.76,0,0,0,4.52-5,14.8,14.8,0,0,0,1.6-7.08,14.43,14.43,0,0,0-1.84-7.6A13.12,13.12,0,0,0,373.89,502.56Z" transform="translate(-198.46 -435)"/><path class="cls-4" d="M417,488a23.17,23.17,0,0,0-21.48,0,18.09,18.09,0,0,0-7.28,7.68,26.56,26.56,0,0,0-2.6,12.32,27,27,0,0,0,2.56,12.32,17.85,17.85,0,0,0,7.2,7.68,21.62,21.62,0,0,0,10.88,2.64A21.32,21.32,0,0,0,417,528a18.24,18.24,0,0,0,7.24-7.68,30.49,30.49,0,0,0,0-24.64A18.24,18.24,0,0,0,417,488Zm-2.24,31.4a10,10,0,0,1-8.48,3.88q-5.61,0-8.56-3.88t-3-11.4q0-7.68,3-11.52t8.56-3.84a10.08,10.08,0,0,1,8.48,3.84q3,3.84,3,11.52Q417.69,515.52,414.73,519.4Z" transform="translate(-198.46 -435)"/><path class="cls-4" d="M492.49,489.08a15,15,0,0,0-6.08-2.92,32.62,32.62,0,0,0-15,.16,58.15,58.15,0,0,0-6.81,2.09,15.48,15.48,0,0,0-4.95-2.21,28.59,28.59,0,0,0-7-.84,45.08,45.08,0,0,0-6.28.48,62.42,62.42,0,0,0-6.56,1.28,43.94,43.94,0,0,0-5.4,1.68l-.16.64a24.79,24.79,0,0,1,.44,3.92c.08,1.65.13,3.32.16,5s0,3.05,0,4.12v27.44h9V499.28c0-1.44-.06-2.77-.16-4,0-.4-.09-.78-.14-1.13.91-.26,1.88-.49,2.94-.71a26,26,0,0,1,5.2-.56,14.51,14.51,0,0,1,5.56,1,7.45,7.45,0,0,1,3.8,3.64,16.86,16.86,0,0,1,1.36,7.52v24.88h9V504.48a24.7,24.7,0,0,0-1.56-9.48c-.08-.19-.18-.35-.26-.53a28.78,28.78,0,0,1,3.82-1.11,20.94,20.94,0,0,1,4.4-.48,17.15,17.15,0,0,1,6.24,1,7.07,7.07,0,0,1,3.84,3.64,17.74,17.74,0,0,1,1.28,7.52v24.88h9V504.48a26.32,26.32,0,0,0-1.48-9.56A13.87,13.87,0,0,0,492.49,489.08Z" transform="translate(-198.46 -435)"/><path class="cls-4" d="M538,488.28q-4.41-2.92-11.53-2.92a21.07,21.07,0,0,0-11,2.76,18.67,18.67,0,0,0-7.2,7.84,26.56,26.56,0,0,0-2.56,12,28.46,28.46,0,0,0,1.56,9.84,17.6,17.6,0,0,0,4.69,7.08,20.33,20.33,0,0,0,7.71,4.28,35.53,35.53,0,0,0,10.6,1.44,36.73,36.73,0,0,0,7.57-.68,25.44,25.44,0,0,0,5.24-1.64v-7.6h-.73a19.4,19.4,0,0,1-4.59,1.72,27.62,27.62,0,0,1-6.92.76,23.51,23.51,0,0,1-8.29-1.36,11.11,11.11,0,0,1-5.67-4.6A14.24,14.24,0,0,1,515,511h30.92l.08-2.4a30.37,30.37,0,0,0-1.65-12.12A16.38,16.38,0,0,0,538,488.28Zm-1,16.12H515a17.13,17.13,0,0,1,1.43-5.88,9.69,9.69,0,0,1,4.2-4.6,12.35,12.35,0,0,1,5.76-1.36c3.53,0,6.16.95,7.92,2.84s2.65,4.68,2.65,8.36Z" transform="translate(-198.46 -435)"/><path class="cls-4" d="M583.44,488.28q-4.4-2.92-11.52-2.92a21.07,21.07,0,0,0-11,2.76,18.67,18.67,0,0,0-7.2,7.84,26.56,26.56,0,0,0-2.56,12,28.46,28.46,0,0,0,1.56,9.84,17.58,17.58,0,0,0,4.68,7.08,20.37,20.37,0,0,0,7.72,4.28,35.53,35.53,0,0,0,10.6,1.44,36.56,36.56,0,0,0,7.56-.68,25,25,0,0,0,5.24-1.64v-7.6h-.72a19.33,19.33,0,0,1-4.6,1.72,27.51,27.51,0,0,1-6.92.76,23.5,23.5,0,0,1-8.28-1.36,11.18,11.18,0,0,1-5.68-4.6,14.37,14.37,0,0,1-1.91-6.28h30.91l.08-2.4a30.2,30.2,0,0,0-1.64-12.12A16.34,16.34,0,0,0,583.44,488.28Zm-1,16.12H560.45a17.13,17.13,0,0,1,1.43-5.88,9.64,9.64,0,0,1,4.2-4.6,12.35,12.35,0,0,1,5.76-1.36q5.28,0,7.92,2.84t2.64,8.36Z" transform="translate(-198.46 -435)"/><path class="cls-4" d="M633.8,525.88q-1.87-2.11-3.48-4l-13-15.13,12.81-13.35c.75-.75,1.5-1.51,2.24-2.28s1.47-1.51,2.16-2.2,1.31-1.25,1.84-1.68v-1h-9.92l-17.92,19.41V469.12h-9.44l-.16.64a23.36,23.36,0,0,1,.44,3.88c.08,1.63.14,3.29.16,5s0,3.09,0,4.16v47.12h9V508.65l17.76,21.27h10.4v-1C636,528.32,635.06,527.29,633.8,525.88Z" transform="translate(-198.46 -435)"/><path class="cls-4" d="M667.84,488a21.27,21.27,0,0,0-10.72-2.64A21.53,21.53,0,0,0,646.36,488a18.09,18.09,0,0,0-7.28,7.68,26.68,26.68,0,0,0-2.6,12.32A27.08,27.08,0,0,0,639,520.32a18,18,0,0,0,7.2,7.68,21.65,21.65,0,0,0,10.88,2.64A21.27,21.27,0,0,0,667.84,528a18.18,18.18,0,0,0,7.24-7.68,30.49,30.49,0,0,0,0-24.64A18.18,18.18,0,0,0,667.84,488Zm-2.24,31.4a10,10,0,0,1-8.48,3.88q-5.6,0-8.56-3.88t-3-11.4q0-7.68,3-11.52t8.56-3.84a10.07,10.07,0,0,1,8.48,3.84q3,3.84,3,11.52Q668.56,515.52,665.6,519.4Z" transform="translate(-198.46 -435)"/><path class="cls-4" d="M702.48,485.84a51.92,51.92,0,0,0-5.76.36q-3.19.36-6.24,1a34.52,34.52,0,0,0-5.2,1.4l-.16.64a24.49,24.49,0,0,1,.44,3.88c.08,1.63.13,3.29.16,5s0,3.09,0,4.16v27.68h9V499.28a37.92,37.92,0,0,0-.29-5.07q1.2-.24,2.61-.45a33.77,33.77,0,0,1,5.12-.4c.85,0,1.77,0,2.76.08a16.47,16.47,0,0,1,2.6.32h.64v-7.52a16.31,16.31,0,0,0-2.52-.32C704.71,485.87,703.65,485.84,702.48,485.84Z" transform="translate(-198.46 -435)"/><path class="cls-4" d="M741.6,488a21.3,21.3,0,0,0-10.72-2.64A21.53,21.53,0,0,0,720.12,488a18.09,18.09,0,0,0-7.28,7.68,26.68,26.68,0,0,0-2.6,12.32,27.08,27.08,0,0,0,2.56,12.32A18,18,0,0,0,720,528a21.65,21.65,0,0,0,10.88,2.64A21.3,21.3,0,0,0,741.6,528a18.18,18.18,0,0,0,7.24-7.68,30.49,30.49,0,0,0,0-24.64A18.18,18.18,0,0,0,741.6,488Zm-2.24,31.4a10,10,0,0,1-8.48,3.88q-5.6,0-8.56-3.88t-3-11.4q0-7.68,3-11.52t8.56-3.84a10.07,10.07,0,0,1,8.48,3.84q3,3.84,3,11.52Q742.32,515.52,739.36,519.4Z" transform="translate(-198.46 -435)"/><path class="cls-4" d="M795.56,495a13.79,13.79,0,0,0-4.36-5.84,16.86,16.86,0,0,0-6.32-3,32.71,32.71,0,0,0-7.6-.84,44.28,44.28,0,0,0-6.12.48,67.18,67.18,0,0,0-6.64,1.28A42.92,42.92,0,0,0,759,488.8l-.16.64a24.79,24.79,0,0,1,.44,3.92c.08,1.65.13,3.32.16,5s0,3.05,0,4.12v27.44h9V499.28c0-1.44-.05-2.77-.16-4,0-.4-.08-.78-.13-1.13.91-.26,1.88-.49,2.93-.71a26,26,0,0,1,5.2-.56,18.15,18.15,0,0,1,6.36,1,7.45,7.45,0,0,1,4.08,3.64,16.4,16.4,0,0,1,1.4,7.52v24.88h9V504.48A24.7,24.7,0,0,0,795.56,495Z" transform="translate(-198.46 -435)"/></svg>