<svg id="Layer_1" data-name="Layer 1" xmlns="http://www.w3.org/2000/svg" viewBox="0 0 280 280"><defs><style>.cls-1{fill:#565656;}</style></defs><title>team</title><path class="cls-1" d="M255,290H45a35,35,0,0,1-35-35V45A35,35,0,0,1,45,10H255a35,35,0,0,1,35,35V255A35,35,0,0,1,255,290ZM45,40a5,5,0,0,0-5,5V255a5,5,0,0,0,5,5H255a5,5,0,0,0,5-5V45a5,5,0,0,0-5-5Z" transform="translate(-10 -10)"/><path class="cls-1" d="M150,219.38H82.84a3.34,3.34,0,0,1-2.67-1.28,3.43,3.43,0,0,1-.68-3c7-31,36.6-53.41,70.51-53.41s63.57,22.47,70.52,53.41c0,0,0,.06,0,.09h19.31a22.57,22.57,0,0,0-.53-4.3,86.21,86.21,0,0,0-31.67-49,93.35,93.35,0,0,0-34.74-16.64,45.08,45.08,0,1,0-45.8,0,93.42,93.42,0,0,0-34.74,16.64,86.23,86.23,0,0,0-31.66,49,22.72,22.72,0,0,0,22.14,27.74H150ZM124.18,106.43A25.82,25.82,0,1,1,150,132.26,25.85,25.85,0,0,1,124.18,106.43Z" transform="translate(-10 -10)"/></svg>