<svg id="Layer_1" data-name="Layer 1" xmlns="http://www.w3.org/2000/svg" viewBox="0 0 284.1 285.64"><defs><style>.cls-1{fill:#565656;}</style></defs><title>vendor</title><path class="cls-1" d="M258,191.33a52.47,52.47,0,0,0-58.33,15.47l-86.89-50.17a50.17,50.17,0,0,0,0-13.26l86.59-50a52.48,52.48,0,1,0-12.05-33.44,51.33,51.33,0,0,0,.3,5.58L100.5,115.81a52.5,52.5,0,1,0,0,68.38l87.17,50.32A52.5,52.5,0,1,0,258,191.33ZM235.52,37.86A22.5,22.5,0,1,1,228,79.08c-.61-.38-1.2-.78-1.77-1.21a22.51,22.51,0,0,1,9.3-40ZM60.71,172.5a22.53,22.53,0,1,1,12.71-3.95A22.52,22.52,0,0,1,60.71,172.5ZM258,253.81a22.5,22.5,0,0,1-18.18,9.27,23,23,0,0,1-3-.21,22.49,22.49,0,0,1-10.17-40.51c.45-.32.9-.63,1.37-.91a22.25,22.25,0,0,1,11.82-3.37A22.48,22.48,0,0,1,258,253.81Z" transform="translate(-8.21 -7.44)"/></svg>